<svg xmlns="http://www.w3.org/2000/svg" xmlns:xlink="http://www.w3.org/1999/xlink" width="85" height="93" viewBox="0 0 85 93"><defs><filter id="a" x="0" y="0" width="85" height="54" filterUnits="userSpaceOnUse"><feOffset dy="3" input="SourceAlpha"/><feGaussianBlur stdDeviation="3" result="b"/><feFlood flood-opacity="0.161"/><feComposite operator="in" in2="b"/><feComposite in="SourceGraphic"/></filter><filter id="c" x="0" y="39" width="85" height="54" filterUnits="userSpaceOnUse"><feOffset dy="3" input="SourceAlpha"/><feGaussianBlur stdDeviation="3" result="d"/><feFlood flood-opacity="0.161"/><feComposite operator="in" in2="d"/><feComposite in="SourceGraphic"/></filter></defs><g transform="translate(9 6)"><g transform="matrix(1, 0, 0, 1, -9, -6)" filter="url(#a)"><g transform="translate(9 6)" fill="#fff" stroke="#f0cb6b" stroke-width="3"><rect width="67" height="36" rx="10" stroke="none"/><rect x="1.5" y="1.5" width="64" height="33" rx="8.5" fill="none"/></g></g><g transform="matrix(1, 0, 0, 1, -9, -6)" filter="url(#c)"><g transform="translate(9 45)" fill="#fff" stroke="#f0cb6b" stroke-width="3"><rect width="67" height="36" rx="10" stroke="none"/><rect x="1.5" y="1.5" width="64" height="33" rx="8.5" fill="none"/></g></g><path d="M8.276,2.931a2,2,0,0,1,3.448,0l6.5,11.055A2,2,0,0,1,16.5,17H3.5a2,2,0,0,1-1.724-3.014Z" transform="translate(24 8)"/><path d="M8.3,2.714a2,2,0,0,1,3.392,0L18.088,12.94a2,2,0,0,1-1.7,3.06H3.608a2,2,0,0,1-1.7-3.06Z" transform="translate(44 66) rotate(180)"/></g></svg>