<svg xmlns="http://www.w3.org/2000/svg" xmlns:xlink="http://www.w3.org/1999/xlink" width="83" height="116" viewBox="0 0 83 116"><defs><filter id="a" x="0" y="0" width="83" height="116" filterUnits="userSpaceOnUse"><feOffset dy="3" input="SourceAlpha"/><feGaussianBlur stdDeviation="3" result="b"/><feFlood flood-opacity="0.161"/><feComposite operator="in" in2="b"/><feComposite in="SourceGraphic"/></filter></defs><g transform="translate(9 6)"><g transform="matrix(1, 0, 0, 1, -9, -6)" filter="url(#a)"><g transform="translate(9 6)" fill="#fff"><path d="M 60.99930191040039 96.00010681152344 L 23.95620155334473 96.00010681152344 C 22.85311508178711 96.00010681152344 21.9556999206543 95.10269165039062 21.9556999206543 93.99960327148438 L 21.9556999206543 54.13950729370117 L 21.9556999206543 52.13950729370117 L 19.9556999206543 52.13950729370117 L 8.000101089477539 52.13950729370117 C 4.691629409790039 52.13950729370117 2.000000715255737 49.44827651977539 2.000000715255737 46.14030838012695 L 2.000000715255737 8.000106811523438 C 2.000000715255737 4.691635131835938 4.691629409790039 2.000006675720215 8.000101089477539 2.000006675720215 L 56.99970245361328 2.000006675720215 L 60.99930191040039 2.000006675720215 C 62.10238647460938 2.000006675720215 62.99980163574219 2.897021055221558 62.99980163574219 3.999606847763062 L 62.99980163574219 93.99960327148438 C 62.99980163574219 95.10269165039062 62.10238647460938 96.00010681152344 60.99930191040039 96.00010681152344 Z" stroke="none"/><path d="M 60.99930191040039 94.00009918212891 C 60.9993896484375 94.00009918212891 60.99947357177734 94.00009918212891 60.99955749511719 94.00009918212891 C 60.99963760375977 94.00001525878906 60.99972152709961 93.99993896484375 60.99980163574219 93.99985504150391 C 60.99980163574219 93.99977111816406 60.99980163574219 93.99968719482422 60.99980163574219 93.99960327148438 L 60.99961853027344 4.000000476837158 C 60.99951171875 4 60.99940872192383 3.999999523162842 60.99930191040039 3.999999523162842 L 56.99970245361328 3.999999523162842 L 8.000101089477539 3.999999523162842 C 5.794434070587158 3.999999523162842 4.000000953674316 5.794433116912842 4.000000953674316 8.000099182128906 L 4.000000953674316 46.14030075073242 C 4.000000953674316 48.34546661376953 5.794434070587158 50.13949966430664 8.000101089477539 50.13949966430664 L 19.9556999206543 50.13949966430664 L 23.9556999206543 50.13949966430664 L 23.9556999206543 54.13949966430664 L 23.9556999206543 93.99960327148438 C 23.9556999206543 93.99968719482422 23.95570182800293 93.99977111816406 23.95570182800293 93.99985504150391 C 23.95578193664551 93.99993896484375 23.95586204528809 94.00001525878906 23.9559440612793 94.00009918212891 C 23.95602798461914 94.00009918212891 23.95611381530762 94.00009918212891 23.95620155334473 94.00009918212891 L 60.99930191040039 94.00009918212891 M 60.99930191040039 98.00009918212891 L 23.95620155334473 98.00009918212891 C 21.74670028686523 98.00009918212891 19.9556999206543 96.20909881591797 19.9556999206543 93.99960327148438 L 19.9556999206543 54.13949966430664 L 8.000101089477539 54.13949966430664 C 3.582000732421875 54.13949966430664 8.178710686479462e-07 50.55839920043945 8.178710686479462e-07 46.14030075073242 L 8.178710686479462e-07 8.000099182128906 C 8.178710686479462e-07 3.581999540328979 3.582000732421875 -4.089355343239731e-07 8.000101089477539 -4.089355343239731e-07 L 56.99970245361328 -4.089355343239731e-07 L 60.99930191040039 -4.089355343239731e-07 C 63.20880126953125 -4.089355343239731e-07 64.99980163574219 1.790999531745911 64.99980163574219 3.999599695205688 L 64.99980163574219 93.99960327148438 C 64.99980163574219 96.20909881591797 63.20880126953125 98.00009918212891 60.99930191040039 98.00009918212891 Z" stroke="none" fill="#f29199"/></g></g><text transform="translate(12 34)" font-size="17" font-family="HelveticaNeue-Medium, Helvetica Neue" font-weight="500"><tspan x="0" y="0">Enter</tspan></text></g></svg>