<svg id="Lager_1" data-name="Lager 1" xmlns="http://www.w3.org/2000/svg" viewBox="0 0 182.13 183.99"><defs><style>.cls-1{fill:#f5dda2;}.cls-2{fill:#f0cb6c;}.cls-3{fill:#a48637;}.cls-4{fill:#b45968;}.cls-5{fill:#fff;}</style></defs><title>Fosauri</title><path class="cls-1" d="M80.76,29.93s-11.4-4.3-12.2-14.1S77.36-2,78.86.43s-2.1,11,3.4,15.4c0,0,.1-14.2,13.5-15.4s-5.2,6.7-.3,18.9c0,0,8.2-1.5,10.5-9.1,2.1-7,2.4-7.1,4.9-2.4s4.9,15.5-6.1,22.2h-24Z" transform="translate(0 0)"/><path class="cls-2" d="M131.06,125c12-12.8,9.5-51.6,6.4-62.6-4.3-15.1-5.6-38.5-47.4-38.5-34.5,0-39.8,22.9-44.6,37-3.7,10.9-7.7,52.1,5,65,5.4,5.5,14.2,9,24.2,10.7,2.5,6.7,9,18.9,23.7,22.2,19.3,4.4,5.6,22.7,9.8,24.9s15.9-9.9,14.6-22.4c-1.4-13.2-13-15.2-12.6-25.9C118.76,133.53,126.36,130,131.06,125Z" transform="translate(0 0)"/><ellipse class="cls-3" cx="73.26" cy="67.63" rx="3" ry="5.9"/><ellipse class="cls-3" cx="108.16" cy="67.63" rx="3" ry="5.9"/><path class="cls-2" d="M136.36,84.13s17.2-3.3,19.9,21,24.7,12.6,17.2-10.6S153,54,155.66,52.73s7,2.5,7,2.5-8.7-10.7-7-14.1,8.4,7.4,8.4,7.4,0-9.4,2.7-9.4,4.6,13.7,6.4,22.6,14.2,36.2,6.4,54-23.9,14.8-27.7,2.8-3.8-26.6-15.6-26.4v-8Z" transform="translate(0 0)"/><path class="cls-2" d="M42.46,84.13s-15.9-3.3-18.4,21-22.8,12.6-15.9-10.6,18.9-40.5,16.4-41.8-6.5,2.5-6.5,2.5,8-10.7,6.5-14.1-7.7,7.4-7.7,7.4,0-9.4-2.5-9.4-4.2,13.7-6,22.6-13.2,36.2-6,54,22.1,14.8,25.6,2.8,3.5-26.6,14.4-26.4v-8Z" transform="translate(0 0)"/><path class="cls-4" d="M66.86,85.93s21.6-5.4,49.3,0c0,0,2.4,30.7-24.6,30.7C64.36,116.63,66.86,85.93,66.86,85.93Z" transform="translate(0 0)"/><path class="cls-5" d="M78.26,84.13a93.73,93.73,0,0,0-10,1.5c.9,3.3,2.5,7.1,5.7,6.4C77.36,91.23,78.16,87,78.26,84.13Z" transform="translate(0 0)"/><path class="cls-5" d="M113.76,85.53c-3.5-.6-6.9-1-10.1-1.4.3,3.5,1.4,8.3,4.9,8C111.76,91.83,113.16,88.23,113.76,85.53Z" transform="translate(0 0)"/><path class="cls-5" d="M108.76,109.93c-1.6-2-3.7-3.4-5.7-2.2-2.5,1.5-2.6,4.7-2.1,7.3A21.59,21.59,0,0,0,108.76,109.93Z" transform="translate(0 0)"/><path class="cls-5" d="M80.86,114.63c1.3-2.6,2.1-5.4-.1-6.9-2.4-1.6-5.3-.3-7.5,1.2A20.31,20.31,0,0,0,80.86,114.63Z" transform="translate(0 0)"/></svg>