<svg xmlns="http://www.w3.org/2000/svg" width="226.738" height="230.67" viewBox="0 0 226.738 230.67"><path d="M1417.448,129.04a35.559,35.559,0,1,0,0,.289c0-.1,0-.191,0-.287Z" transform="translate(-1246.008 -42.525)" fill="#9991f5"/><path d="M1332.027,263.592h-22.263c-1.627,0-1.575-.039-1.484,1.536a3.518,3.518,0,0,1-1.3,2.949c-4.568,4.321-9.093,8.684-13.632,13.037q-8.613,8.265-17.217,16.539-9.519,9.13-19.047,18.248-9.569,9.184-19.117,18.391a3.128,3.128,0,0,1-1.8.917q-4.453.606-8.9,1.226c-1.945.27-3.887.563-5.834.821-.54.072-.958.166-.909.86.055.777.615.6,1.081.629.049,0,.1,0,.147,0q13.416,0,26.833.014a2.366,2.366,0,0,0,1.819-.737c2.242-2.2,4.53-4.362,6.8-6.534l27.362-26.184q14.746-14.114,29.484-28.231c1.343-1.287,1.9-1.327,3.457-.246a25.465,25.465,0,0,0,29.68-.011c1.467-1.018,2.177-.968,3.469.317q9.1,9.04,18.18,18.1c1.413,1.408,1.429,2.222.1,3.629q-16.132,17.094-32.268,34.183c-1.633,1.73-1.635,1.725-1.63,4.109,0,1.766-.042,1.59,1.6,1.59q15.629,0,31.257,0c.3,0,.59-.012.884,0a.553.553,0,0,0,.645-.442.568.568,0,0,0,.006-.164c.016-.426-.039-.786-.58-.839-.342-.034-.676-.123-1.017-.174q-5.615-.8-11.232-1.585c-.826-.117-1.658-.2-2.477-.36a1.888,1.888,0,0,1-1.168-3.294c.286-.337.588-.662.9-.979q11.8-12.166,23.594-24.336c1.812-1.869,3.649-3.716,5.4-5.641a5.537,5.537,0,0,0,.164-7.291,12.211,12.211,0,0,0-1.009-1.072q-7.105-6.965-14.216-13.923c-3.336-3.265-6.636-6.571-10.032-9.769-1.309-1.229-2.458-2.391-2.09-4.375.136-.72-.278-.963-.95-.912-.342.026-.687,0-1.031,0Z" transform="translate(-1197.484 -108.091)" fill="#9991f5"/><path d="M1350.262,192.885h21.971c.344,0,.689-.014,1.032,0,.547.022.826-.2.8-.774-.015-.393,0-.786,0-1.18V168.075c0-.393-.019-.788.01-1.179a1.692,1.692,0,0,1,1.467-1.757,10.713,10.713,0,0,1,1.159-.213q7.353-1.13,14.706-2.254,11.067-1.69,22.135-3.374c3.981-.606,7.96-1.223,11.944-1.8a1.259,1.259,0,0,0,1.256-1.261v-.025c.4-3.265.886-6.52,1.328-9.781q1.267-9.344,2.523-18.688,1.13-8.4,2.255-16.792c.167-1.254.145-1.26-1.131-1.432q-3.139-.423-6.279-.836c-1.044-.138-1.073-.128-1.218.892q-.525,3.72-1.023,7.444-1.257,9.344-2.507,18.691c-.529,3.942-1.044,7.887-1.6,11.825-.234,1.65-.633,2.036-2.2,2.28-4.658.723-9.321,1.421-13.979,2.136-6.65,1.022-13.3,2.068-19.948,3.062a2.994,2.994,0,0,0-2.229,1.386,36.79,36.79,0,0,1-16.923,13.484,3.212,3.212,0,0,0-1.646,1.355c-1.888,3.05-3.816,6.074-5.727,9.109-1.624,2.581-3.229,5.167-4.875,7.729-.681,1.061-1.318,1.049-2.024.044-.169-.241-.316-.5-.473-.747-3.245-5.156-6.5-10.3-9.724-15.475a3.56,3.56,0,0,0-1.99-1.6,34.067,34.067,0,0,1-10.393-5.744,2.487,2.487,0,0,0-2.145-.558c-5.334.843-10.677,1.637-16.014,2.461q-19.722,3.048-39.45,6.108c-1.229.19-1.255.19-1.082,1.509.269,2.045.577,4.084.864,6.127.176,1.255.17,1.245,1.471,1.045q9.1-1.4,18.2-2.783,10.848-1.665,21.693-3.342,6.843-1.057,13.683-2.132a1.989,1.989,0,0,1,2.177.856,2.648,2.648,0,0,1,.278,1.569v13.418c0,1.081.014,2.163,0,3.244-.008.546.2.83.771.807.393-.017.786,0,1.18,0Z" transform="translate(-1215.864 -48.344)" fill="#9991f5"/><path d="M1387.06,255.978h21.664c.393,0,.786-.017,1.179,0,.634.02.856-.294.848-.9-.02-1.475,0-2.949-.005-4.424-.01-2.007.2-1.843-1.794-1.843q-21.959,0-43.917,0c-.295,0-.591.02-.884,0-.651-.046-.849.283-.842.888.019,1.817.017,3.635,0,5.452,0,.539.189.837.759.829.392-.005.786.008,1.179.008Z" transform="translate(-1252.539 -102.394)" fill="#ea4343"/><path d="M1491.537,28.984q7,8.651,13.988,17.306c.216.267.416.549.649.8.43.465.36.844-.123,1.225-.925.73-1.824,1.494-2.754,2.217-.29.225-.571.71-.964.506-.415-.214-.123-.711-.1-1.074a7.674,7.674,0,0,0-6.724-8.124,9.258,9.258,0,0,0-1.172-.123,3.151,3.151,0,0,1-2.581-1.4q-9.769-12.185-19.62-24.308c-.184-.229-.36-.468-.553-.688-.388-.441-.438-.812.086-1.223,1.392-1.09,2.762-2.212,4.128-3.331.43-.351.771-.343,1.106.11.234.315.492.61.742.915Z" transform="translate(-1294.171 -10.519)" fill="#fff"/><path d="M1245.194,206.449a7.37,7.37,0,0,0-.269-2.335,7.766,7.766,0,0,0-7.117-6.032,7.561,7.561,0,0,0-7.613,5.341,32.883,32.883,0,0,0-1.019,6.384,1.91,1.91,0,0,0,2.584,1.938,2.046,2.046,0,0,0,1.336-1.79c.167-1.115.3-2.236.487-3.349.2-1.167.486-1.54,1.066-1.489.634.056.892.541.76,1.76-.059.544.065.828.567.995a3.424,3.424,0,0,1,2.132,1.9,1.361,1.361,0,0,0,1.2.872,3.176,3.176,0,0,1,2.581,1.974,4.261,4.261,0,0,0,2.032,2.181c.836.513,1.649,1.065,2.462,1.614a1.748,1.748,0,0,0,1.231.375c1.314-.164,2.628-.333,3.946-.468.651-.066.789-.4.7-.989-.337-2.231-.63-4.469-.975-6.7-.167-1.087-.2-1.1-1.322-.943-1.213.171-2.416.43-3.635.56-.875.094-1.154-.216-1.181-1.078A7.113,7.113,0,0,1,1245.194,206.449Z" transform="translate(-1200.819 -82.835)" fill="#fce2d8"/><path d="M1506.348,78.228a6.984,6.984,0,0,0,1.561,4.807,8.625,8.625,0,0,0,7.756,3.39c1.392-.119,1.7.224,1.474,1.569-.158.922-.349,1.833-.486,2.754-.152,1.021-.132,1.026.929,1.174,1.361.19,2.722.381,4.085.562q1.387.184,2.777.339c.287.033.686.079.726-.289.108-.983.654-1.959-.193-2.94-.8-.925-1.438-1.988-2.15-2.99-2.217-3.125-4.447-6.241-6.64-9.382-.435-.623-.844-1.082-1.663-.709a.61.61,0,0,1-.291.024.87.87,0,0,1-.906-.794.8.8,0,0,1,.536-.939,7.063,7.063,0,0,1,1-.251c1.156-.224,2.326-.393,3.47-.666a1.942,1.942,0,0,0-.548-3.841,3.472,3.472,0,0,0-.586.065c-1.688.318-3.393.568-5.059.975A7.58,7.58,0,0,0,1506.348,78.228Z" transform="translate(-1307.688 -33.468)" fill="#fce2d8"/><path d="M1540.448,89.5c1.08,1.336,2.17,2.664,3.237,4.012.637.8.632.833-.178,1.5-1.249,1.032-2.529,2.028-3.771,3.066-.5.418-.871.506-1.332-.071q-3.26-4.087-6.569-8.134a.8.8,0,0,1,.145-1.343q1.974-1.536,3.894-3.148c.605-.509.991-.36,1.436.215C1538.33,86.915,1539.4,88.2,1540.448,89.5Z" transform="translate(-1317.402 -39.264)" fill="#fff"/><path d="M1445.38,95.025c-.062,1.972.261,3.919.35,5.881a5.347,5.347,0,0,0,.2,1.306c.174.58.553.652.926.152a62.9,62.9,0,0,0,5.432-8.054,3.38,3.38,0,0,0-.545-4.093A3.442,3.442,0,0,0,1448,89.162a3.48,3.48,0,0,0-2.605,3.213C1445.322,93.254,1445.38,94.142,1445.38,95.025Z" transform="translate(-1284.176 -40.772)" fill="#9991f5"/><path d="M1458.76,112.831c.737,0,1.475.045,2.2-.009a3.513,3.513,0,0,0,3.266-2.558,3.653,3.653,0,0,0-4.96-4.43,66.492,66.492,0,0,0-8.637,5.339c-.159.109-.34.246-.259.474s.307.205.484.246a7.581,7.581,0,0,0,.869.162C1454.074,112.3,1456.4,112.71,1458.76,112.831Z" transform="translate(-1286.103 -47.151)" fill="#9991f5"/><path d="M1534.262,67.09a4.428,4.428,0,0,0-2.932-4.178,4.552,4.552,0,0,0-4.839,1.269.433.433,0,0,0-.094.605.342.342,0,0,0,.027.033,6.27,6.27,0,0,0,1.373,1.516c.526.4.781-.194,1.177-.253a.922.922,0,0,1,1.027.388c.2.323.239.777-.032.954-1.018.667-.991,1.691-1.119,2.7a2.894,2.894,0,0,1-.83,1.53,4.094,4.094,0,0,1-2.273,1.253c-.766.164-.836.515-.3,1.081a1.82,1.82,0,0,0,2.565.22c.027-.022.052-.045.077-.069,1.621-1.269,3.207-2.584,4.769-3.926A4.123,4.123,0,0,0,1534.262,67.09Z" transform="translate(-1314.922 -30.622)" fill="#fce2d8"/><path d="M1222.119,221.945a4.411,4.411,0,0,0,2.7,4.106,4.081,4.081,0,0,0,4.731-.989c1.438-1.674,2.743-3.465,4.042-5.252a1.73,1.73,0,0,0-.147-2.3,1.085,1.085,0,0,0-.86-.5c-.492.047-.341.511-.417.815a3.678,3.678,0,0,1-3.546,3.167,1.672,1.672,0,0,0-1.352.719c-.333.484-.792.777-1.381.417a.853.853,0,0,1-.366-1.149.938.938,0,0,1,.078-.124c.123-.227.206-.476,0-.676-.586-.574-1.045-1.578-1.83-1.553-.627.02-.983,1-1.3,1.668A3.512,3.512,0,0,0,1222.119,221.945Z" transform="translate(-1198.099 -90.135)" fill="#fce2d8"/><path d="M1531.738,83.424a2,2,0,0,0,1.352-.492l4.424-3.648a2.209,2.209,0,0,0,.773-1.22,2.018,2.018,0,0,0-.9-2.016c-.718-.4-.916.292-1.3.6a71.56,71.56,0,0,1-5.755,4.56.77.77,0,0,0-.277,1.22A1.885,1.885,0,0,0,1531.738,83.424Z" transform="translate(-1316.757 -35.738)" fill="#fce2d8"/><path d="M1243.031,223.362a2.079,2.079,0,0,0-1.311-1.8.655.655,0,0,0-.9.206.75.75,0,0,0-.058.117,45.759,45.759,0,0,1-4.751,6.357.785.785,0,0,0,.054,1.253,1.914,1.914,0,0,0,2.706.087,1.934,1.934,0,0,0,.258-.3c1.229-1.531,2.4-3.117,3.575-4.688A1.931,1.931,0,0,0,1243.031,223.362Z" transform="translate(-1203.345 -91.852)" fill="#fce2d8"/><path d="M1249.482,229.411a1.821,1.821,0,0,0-.474-1.207c-.684-.8-1.183-.787-1.847.077-.928,1.207-1.852,2.418-2.759,3.639-.595.8-.473,1.275.4,1.72a1.913,1.913,0,0,0,1.29.154C1247.081,233.6,1249.5,230.456,1249.482,229.411Z" transform="translate(-1206.55 -94.227)" fill="#fce2d8"/><path d="M1400.11,140.57l-22.611-1.782c-5.188-.406-10.38-.766-15.564-1.208a9.371,9.371,0,0,1-8.737-9.964q.016-.232.042-.463a9.528,9.528,0,0,1,10.3-8.421q15.493,1.168,30.985,2.345c2.5.189,4.994.377,7.489.58a9.564,9.564,0,0,1,8.938,8.827,9.448,9.448,0,0,1-7.189,9.854A10.2,10.2,0,0,1,1400.11,140.57Z" transform="translate(-1248.633 -52.232)" fill="#161d38"/><path d="M1365.427,121.854l0,.043c-.342-.034-.683-.08-1.025-.1a7.607,7.607,0,1,0-1.282,15.16c.077.007.154.012.231.016l10.576.839c7.492.583,14.983,1.188,22.478,1.72a58.35,58.35,0,0,0,6.616.406,7.593,7.593,0,0,0,4.576-13.354,8.911,8.911,0,0,0-5.581-1.971q-4.855-.31-9.7-.683Q1378.867,122.9,1365.427,121.854Z" transform="translate(-1249.779 -53.415)" fill="#fce2d8"/><path d="M1392.413,128.2a.844.844,0,0,1,.939.727.854.854,0,0,1-.607,1.04c-1.021.346-2.057.651-3.079,1-2.047.693-1.889.477-.469,1.916.724.733,1.474,1.439,2.218,2.154a1.061,1.061,0,0,1,.307,1.205c-.231.608-.979.7-1.593.14-.943-.86-1.837-1.771-2.752-2.66-.6-.581-1.236-1.127-1.79-1.748-.653-.731-.532-1.408.365-1.72,2.035-.715,4.1-1.342,6.155-2A1.988,1.988,0,0,1,1392.413,128.2Z" transform="translate(-1260.971 -55.891)" fill="#161d38"/><path d="M1423.926,133.991a2.827,2.827,0,1,1-2.762,2.892A2.827,2.827,0,0,1,1423.926,133.991Z" transform="translate(-1274.847 -58.126)" fill="#161d38"/><path d="M1366.691,134.375a2.822,2.822,0,0,1-2.8-2.8,2.86,2.86,0,0,1,2.879-2.842h.05a2.823,2.823,0,0,1-.123,5.645Z" transform="translate(-1252.762 -56.098)" fill="#161d38"/><path d="M1199.795,180.182l15.734,15.733c.243.246.5.472.728.73.417.476.8.448,1.229.007.823-.844,1.677-1.659,2.494-2.506.255-.265.767-.491.606-.906-.17-.435-.694-.195-1.058-.215a7.675,7.675,0,0,1-7.373-7.543,9.272,9.272,0,0,1,0-1.178,3.149,3.149,0,0,0-1.119-2.713q-11.087-11-22.106-22.071c-.209-.208-.43-.407-.626-.624-.4-.43-.762-.521-1.225-.043-1.229,1.269-2.487,2.514-3.748,3.755-.394.388-.423.73-.007,1.112.289.266.553.557.833.834Z" transform="translate(-1183.027 -67.589)" fill="#fff"/><path d="M1254.822,235.194c1.214,1.215,2.421,2.439,3.648,3.641.733.718.762.717,1.515-.019,1.158-1.133,2.281-2.3,3.445-3.427.47-.453.6-.812.07-1.331q-3.721-3.672-7.4-7.39a.8.8,0,0,0-1.352,0q-1.738,1.8-3.541,3.54c-.571.548-.462.947.062,1.451C1252.479,232.815,1253.642,234.013,1254.822,235.194Z" transform="translate(-1209.17 -93.717)" fill="#fff"/><path d="M1363.412,129.852a3.857,3.857,0,0,1-1.881-.438,1.325,1.325,0,0,1-.561-1.676" transform="translate(-1251.588 -55.716)" fill="none" stroke="#000" stroke-miterlimit="10" stroke-width="0.75"/><path d="M1366.152,128.372a3.791,3.791,0,0,1-1.064-.189,1.284,1.284,0,0,1-.77-.716,1.481,1.481,0,0,1,.229-1.236" transform="translate(-1252.906 -55.135)" fill="none" stroke="#000" stroke-miterlimit="10" stroke-width="0.75"/><path d="M1427.049,133.735a1.639,1.639,0,0,0,1.465-.85,7.188,7.188,0,0,0,.37-1.967" transform="translate(-1277.116 -56.942)" fill="none" stroke="#000" stroke-miterlimit="10" stroke-width="0.75"/><path d="M1427.981,136.393a2.191,2.191,0,0,0,2.066-.485,4.984,4.984,0,0,0,1.244-1.816" transform="translate(-1277.476 -58.166)" fill="none" stroke="#000" stroke-miterlimit="10" stroke-width="0.75"/><path d="M1429.169,140.63a2.192,2.192,0,0,0,2.094.342,4.981,4.981,0,0,0,1.844-1.2" transform="translate(-1277.934 -60.355)" fill="none" stroke="#000" stroke-miterlimit="10" stroke-width="0.75"/><path d="M1362.8,133.54a3.857,3.857,0,0,1-1.928.121,1.324,1.324,0,0,1-1.019-1.443" transform="translate(-1251.197 -57.443)" fill="none" stroke="#000" stroke-miterlimit="10" stroke-width="0.75"/></svg>