<svg xmlns="http://www.w3.org/2000/svg" width="121.734" height="186.086" viewBox="0 0 121.734 186.086"><path d="M510.776,432.628c0,.083.052.093.046.043-.012-.108.041.012-.062-.028.038-.342-.21-.561-.368-.808a16.44,16.44,0,0,0-5.116-4.909,4.239,4.239,0,0,0-1.527-.609,33.323,33.323,0,0,0-9.844-.335c-.665.07-.682.077-.587.777.213,1.564.442,3.125.671,4.687.08.541.092.551.627.413a31.951,31.951,0,0,1,5.807-.971,19.519,19.519,0,0,1,9.812,1.591C510.4,432.558,510.561,432.706,510.776,432.628Z" transform="translate(-493.276 -372.405)" fill="#4bad8c"/><path d="M560.095,469.3a24.4,24.4,0,1,0-24.369-24.638A24.434,24.434,0,0,0,560.095,469.3Z" transform="translate(-521.018 -368.957)" fill="#4bad8c"/><path d="M527.938,625.358c-2.272,0-4.545,0-6.818,0-1.532,0-1.3-.129-1.288,1.263a1.72,1.72,0,0,1-.584,1.378c-1.467,1.392-2.9,2.823-4.345,4.236q-6.57,6.421-13.145,12.836a4.78,4.78,0,0,0-.034,6.958c3.329,3.292,6.557,6.688,9.828,10.039q8.48,8.684,16.962,17.366c.5.516.513.518,1.037.085q2.852-2.357,5.7-4.723c.548-.456.543-.462.05-.992-.038-.041-.078-.079-.116-.119l-22.987-24.374c-.133-.141-.271-.279-.394-.428a.568.568,0,0,1,.016-.822c.149-.164.308-.318.466-.475l10.2-10.138c.746-.741.743-.742.269-1.72-.061-.124-.124-.248-.172-.377a.492.492,0,0,1,.3-.678,4.138,4.138,0,0,1,.557-.16,25.276,25.276,0,0,0,8.191-3.942,14.7,14.7,0,0,0,4.068-4.446c.408-.709.378-.765-.44-.767C532.816,625.355,530.377,625.358,527.938,625.358Z" transform="translate(-497.826 -502.844)" fill="#4bad8c"/><path d="M631.22,625.359c-1.3,0-2.6,0-3.906,0-.891,0-.9.006-.695.84a16.214,16.214,0,0,1,.454,3.535,22.6,22.6,0,0,1-1.005,6.793c-.044.15-.2.33-.068.463.178.184.346-.049.514-.1a2.906,2.906,0,0,0,.447-.217,19.1,19.1,0,0,0,2.473-1.523c.494-.355.625-.333,1.083.071.1.091.2.194.3.289Q649.1,653,667.38,670.5q3.392,3.247,6.775,6.5c.717.687.547.582,1.266.055.849-.622,1.688-1.258,2.53-1.89q1.928-1.445,3.855-2.893c.445-.336.446-.353.072-.726-.49-.489-.993-.965-1.493-1.444q-21.647-20.768-43.308-41.52a2.87,2.87,0,0,1-1.177-2.627c.079-.558,0-.585-.607-.589C633.935,625.353,632.578,625.36,631.22,625.359Z" transform="translate(-579.984 -502.844)" fill="#4bad8c"/><path d="M556.758,568.612q0,4.155,0,8.311c0,.638.016.656.649.656q7.106.007,14.212,0c.055,0,.111,0,.166,0,.278.013.5-.045.506-.388.013-.527.355-.63.793-.608.111.005.221,0,.332,0q3.449,0,6.9,0c.76,0,.779,0,1.025.723.1.3.312.27.523.271,2.77,0,5.541,0,8.311.009.406,0,.53-.158.525-.541-.014-1.108-.009-2.216,0-3.324,0-.785-.106-.7-.645-.8-3.457-.635-6.91-1.29-10.364-1.94-1.713-.323-3.431-.624-5.137-.981a2.732,2.732,0,0,1-2.249-2.63,10.315,10.315,0,0,1,0-1.246,2.8,2.8,0,0,1,2.736-2.7c.248-.014.5-.006.748-.006H589.5c.222,0,.444-.014.665,0,.382.025.549-.117.538-.524-.022-.858,0-1.718-.008-2.576-.005-.71-.011-.72-.745-.722-2.133-.006-4.267,0-6.4-.009a3.324,3.324,0,0,0-1.132.191,25.491,25.491,0,0,1-17.1,0,2.9,2.9,0,0,0-.97-.186c-2.272,0-4.543,0-6.815,0-.764,0-.771.012-.771.793Q556.754,564.5,556.758,568.612Z" transform="translate(-534.763 -459.857)" fill="#4bad8c"/><path d="M626.1,573.676q-9.642,0-19.284,0a2.648,2.648,0,0,0-1.066.112c-1.247.527-1.176,1.612-1.133,2.679a1.755,1.755,0,0,0,1.323,1.708c.265.076.54.12.813.171q8.244,1.539,16.489,3.076,11.141,2.083,22.281,4.172c.646.121.663.116.664-.533q.008-5.361,0-10.722c0-.643-.014-.644-.636-.662-.194-.005-.388,0-.582,0Z" transform="translate(-566.029 -469.067)" fill="#4bad8c"/><path d="M559.384,785.064q6.064,0,12.127,0a3.62,3.62,0,0,0,1.231-.142,2.312,2.312,0,0,0,1.667-1.979,2.234,2.234,0,0,0-1.272-2.317,3.526,3.526,0,0,1-1.052-.782q-3.364-3.505-6.74-7c-.471-.487-.482-.486-.984-.073-1.09.9-2.172,1.8-3.266,2.7-.235.192-.318.343-.068.594.547.549,1.08,1.112,1.605,1.682a.663.663,0,0,0,.752.174,5.1,5.1,0,0,1,.885-.206.451.451,0,0,1,.49.366.458.458,0,0,1-.239.562,2.87,2.87,0,0,1-.547.184q-5.566,1.506-11.134,3.006c-.763.205-.772.2-1.18-.487a3.268,3.268,0,0,0-1.291-1.257c-.243-.13-.361-.092-.336.209a3.015,3.015,0,0,1,.009.5,2.532,2.532,0,0,1-3.6,2.109c-.237-.107-.471-.467-.708-.272-.187.154-.055.524-.008.8a7.151,7.151,0,0,0,.152.731c.235.835.327.9,1.211.9Q553.238,785.066,559.384,785.064Z" transform="translate(-527.497 -598.99)" fill="#e5b59a"/><path d="M791.624,780.021h4.82c1.576,0,1.662-.075,1.921-1.68a3.27,3.27,0,0,0,.056-.411c0-.155.079-.35-.107-.441-.143-.07-.254.071-.365.142a2.549,2.549,0,0,1-3.919-2.261c0-.134.083-.309-.044-.39-.165-.105-.312.051-.443.139a3.605,3.605,0,0,0-1.141,1.295c-.309.555-.545.577-1.043.166-.128-.106-.246-.224-.368-.337l-4.014-3.738q-3.923-3.652-7.848-7.3c-.654-.608-.534-.56-1.217-.053q-1.8,1.337-3.592,2.69c-.5.376-.493.383-.029.834.179.174.36.345.542.516.544.513,1.1,1.013,1.631,1.541.484.483.43.756-.165,1.069-.123.064-.255.113-.37.187a2.26,2.26,0,0,0-1.12,1.839,2.4,2.4,0,0,0,2.448,2.568c1.08.036,2.164.078,3.24.017a2.314,2.314,0,0,1,1.909.759c.821.823,1.722,1.565,2.562,2.37a1.634,1.634,0,0,0,1.254.494C788.022,780,789.823,780.021,791.624,780.021Z" transform="translate(-676.706 -593.947)" fill="#e5b59a"/><path d="M669.365,551.921q-5.4,0-10.806,0c-.793,0-.8.01-.807.762q-.012,1.579,0,3.158c0,.72.012.714.721.817,2.959.427,5.915.879,8.877,1.279a30.015,30.015,0,0,0,4.371.476c2.687-.03,5.375-.009,8.062-.009.222,0,.443-.009.665,0,.359.011.478-.169.476-.511q-.012-2.743,0-5.486c0-.365-.167-.494-.5-.483-.221.007-.443,0-.665,0Z" transform="translate(-600.764 -454.85)" fill="#4bad8c"/><path d="M603.594,622.625a16.9,16.9,0,0,1-1.087,6.025,27.706,27.706,0,0,1-4.851,8.259c-.4.489-.4.5.127.849q1.943,1.275,3.895,2.536c.612.4.626.4,1.01-.207a29.222,29.222,0,0,0,4.456-11.257,15.727,15.727,0,0,0-.885-8.476c-.466-1.145-.468-1.144-1.734-1.144-.277,0-.554-.009-.83,0-.484.023-.525.06-.418.548A12.709,12.709,0,0,1,603.594,622.625Z" transform="translate(-561.304 -498.824)" fill="#fff"/><path d="M521.647,413.794c-.045-.135-.108-.347-.186-.553A16.245,16.245,0,0,0,518.9,408.8a29.491,29.491,0,0,0-11.474-8.278c-.424-.186-.587-.035-.73.342-.572,1.5-1.166,2.991-1.742,4.49-.211.55-.2.554.38.727.8.237,1.6.437,2.382.721,4.928,1.8,9.285,4.342,11.844,9.194.144.273.267.176.415,0q.729-.852,1.469-1.695A.58.58,0,0,0,521.647,413.794Z" transform="translate(-500.824 -355.851)" fill="#4bad8c"/><path d="M583.777,623a12.447,12.447,0,0,0-.312-2.991c-.03-.135-.059-.271-.1-.4-.054-.195-.132-.359-.381-.361a.361.361,0,0,0-.407.32c-.023.108-.071.21-.1.316a13.134,13.134,0,0,1-2.647,4.844,18.65,18.65,0,0,1-4.843,4,26.952,26.952,0,0,1-5.83,2.576c-.651.2-.655.216-.337.833q1.062,2.066,2.138,4.126c.286.545.3.549.86.236a33.642,33.642,0,0,0,6.268-4.479,23.316,23.316,0,0,0,4.953-6.2A4.852,4.852,0,0,0,583.777,623Z" transform="translate(-542.514 -498.846)" fill="#fff"/><path d="M733.1,580.539c1.607,0,3.213.011,4.82,0A1.736,1.736,0,0,0,739.776,579c.035-.387-.053-.476-.39-.311-1.108.543-2.286.292-3.437.328a.491.491,0,0,1-.546-.506c-.011-.343.21-.494.523-.52.22-.018.443-.01.664-.014.553-.01,1.111.019,1.66-.038a1.681,1.681,0,0,0,1.536-1.586c.021-.423-.063-.5-.461-.317a8.143,8.143,0,0,1-3.443.284.462.462,0,0,1-.479-.479c-.012-.341.2-.5.509-.54a4.986,4.986,0,0,1,.581-.017c.554,0,1.108.006,1.662-.012a1.641,1.641,0,0,0,1.417-.875c.144-.242.308-.546.15-.775-.137-.2-.345.169-.565.125a1.27,1.27,0,0,0-.248,0h-4.155c-.285,0-.57-.013-.689-.337-.127-.348.055-.579.317-.777q.63-.475,1.254-.959c.607-.473.731-.835.43-1.23s-.667-.386-1.312.043c-1.5,1-3.006,1.981-4.484,3.008a3.036,3.036,0,0,1-2.069.671c-.58-.049-.6.012-.6.6q-.012,2.576,0,5.153c0,.593.018.609.6.612C729.833,580.544,731.467,580.539,733.1,580.539Z" transform="translate(-646.41 -466.769)" fill="#e5b59a"/><path d="M731,550.351c.941,0,1.882-.016,2.822.007.444.011.573-.172.561-.588-.049-1.742-.077-3.485-.115-5.227,0-.19.022-.389-.141-.542-.251-.237-.359-.522-.109-.8.291-.325.6-.13.9.042.477.28.943.58,1.432.838a.791.791,0,0,0,1.147-.273.814.814,0,0,0-.364-1.13c-.725-.457-1.461-.9-2.216-1.3a3.112,3.112,0,0,0-2.34-.229,3.22,3.22,0,0,0-2.46,2.448,3.56,3.56,0,0,0,1.236,3.655c.185.165.4.3.575.47a.417.417,0,0,1,.061.535.462.462,0,0,1-.555.258,1.75,1.75,0,0,1-.507-.27,4.331,4.331,0,0,1-1.8-2.7c-.162-.828-.332-.727-1-.748-.382-.012-.544.127-.539.528.015,1.494.019,2.989,0,4.482-.006.455.192.56.6.553C729.116,550.339,730.057,550.351,731,550.351Z" transform="translate(-646.403 -447.724)" fill="#e5b59a"/><path d="M565.057,617.22h7.552a4.9,4.9,0,0,0,.663-.017c.241-.033.531-.582.468-.867s-.3-.174-.474-.187c-.911-.069-.928-.081-.97-.949,0-.083-.008-.166,0-.249.015-.317-.136-.453-.449-.432-.138.009-.276,0-.415,0H557.651c-.166,0-.332.007-.5,0-.279-.006-.4.128-.394.4.007.525-.005,1.051,0,1.576.007.707.011.715.745.716Q561.282,617.224,565.057,617.22Z" transform="translate(-534.765 -495.759)" fill="#fff"/><path d="M630.452,617.218c1.413,0,2.826,0,4.239,0,.749,0,.75-.008.756-.783,0-.416.006-.831,0-1.247-.011-.659-.015-.668-.705-.669q-3.948-.006-7.9,0c-.668,0-.785-.089-.751.706.021.5-.075.889-.677.933-.1.008-.2.045-.186.208a.889.889,0,0,0,.9.852C627.57,617.222,629.011,617.218,630.452,617.218Z" transform="translate(-579.513 -495.757)" fill="#fff"/><path d="M741.263,525.616h0c-2.129,0-4.259,0-6.388,0-.339,0-.5.112-.5.481s.078.595.5.555c.192-.018.387,0,.581,0h11.448c.193,0,.388-.012.58,0,.351.023.5-.122.492-.481-.007-.481-.038-.547-.583-.549C745.356,525.61,743.309,525.616,741.263,525.616Z" transform="translate(-650.847 -437.658)" fill="#151d38"/><path d="M753.075,605.558c0-.663-.006-1.327,0-1.99,0-.335-.107-.513-.477-.5-.5.019-1,.013-1.492,0-.326-.006-.432.156-.43.458q.009,2.032,0,4.064c0,.307.112.459.434.453.47-.009.942-.026,1.41.007s.57-.186.56-.589C753.064,606.83,753.076,606.193,753.075,605.558Z" transform="translate(-661.498 -488.277)" fill="#151d38"/><path d="M752.912,533.924h.061c0-.608-.013-1.216,0-1.823.01-.37-.093-.565-.508-.554-.773.02-1.548.016-2.321,0-.365-.007-.487.156-.476.5.017.525.031,1.051.01,1.575a.779.779,0,0,0,.447.791,18.41,18.41,0,0,1,2.457,1.532c.315.26.315-.028.319-.2C752.921,535.139,752.912,534.532,752.912,533.924Z" transform="translate(-660.842 -441.534)" fill="#151d38"/><path d="M608.115,611.637c-.939,0-1.879-.005-2.818,0-.644.005-.645.013-.659.628,0,.166.01.332,0,.5-.021.324.138.434.445.433q3.025-.008,6.05,0c.366,0,.491-.173.467-.511-.009-.137,0-.276,0-.414-.017-.619-.018-.628-.666-.634C609.993,611.63,609.054,611.637,608.115,611.637Z" transform="translate(-566.054 -493.876)" fill="#fff"/><path d="M559.531,549.607v0c.691,0,1.382.007,2.073-.006.143,0,.371.1.413-.121.023-.122-.178-.177-.294-.24a23.692,23.692,0,0,1-2.933-1.87c-.573-.432-1.125-.894-1.685-1.343-.23-.184-.345-.126-.346.164,0,1,.007,1.99,0,2.985,0,.329.15.434.454.431C557.984,549.6,558.758,549.607,559.531,549.607Z" transform="translate(-534.763 -450.931)" fill="#4bad8c"/><path d="M752.775,548.236v.06c.469,0,.94.028,1.407-.006a1.917,1.917,0,0,0,.763-3.583c-.25-.133-.59-.411-.817-.124a1.042,1.042,0,0,0-.022,1.022c.019.046.088.068.12.112.391.547.267.883-.38.924a1.1,1.1,0,0,0-.8.324,1.851,1.851,0,0,1-2.067.4c-.155-.054-.339-.308-.49-.053a.532.532,0,0,0,.137.609.953.953,0,0,0,.741.313C751.836,548.245,752.305,548.236,752.775,548.236Z" transform="translate(-661.341 -449.973)" fill="#e5b59a"/><path d="M730.217,570.919c-.718,0-1.436.005-2.154,0-.3,0-.467.095-.463.424.009.635,0,1.27.006,1.905,0,.138.019.3.2.313a2.142,2.142,0,0,0,1.372-.113c1.11-.723,2.207-1.467,3.306-2.207.063-.043.148-.126.143-.184-.011-.14-.144-.135-.252-.135Q731.294,570.918,730.217,570.919Z" transform="translate(-646.417 -467.265)" fill="#fff"/><path d="M642.668,550.062c.719,0,1.439-.009,2.158,0,.334.006.512-.082.5-.46-.017-.885,0-1.77-.007-2.656,0-.1.022-.228-.08-.3-.124-.087-.208.031-.282.094a26.126,26.126,0,0,1-4.453,3.026c-.067.036-.161.1-.162.161,0,.171.155.125.246.126C641.285,550.065,641.977,550.062,642.668,550.062Z" transform="translate(-589.393 -451.385)" fill="#4bad8c"/><path d="M595.654,652.948c.2.053.339-.2.5-.428a27.1,27.1,0,0,0,2.588-4.612,3.215,3.215,0,0,0,.143-.387.095.095,0,1,0-.156-.1,4.055,4.055,0,0,0-.267.315,27.729,27.729,0,0,1-4.149,4.265c-.127.107-.258.208-.377.324-.17.166-.13.281.1.324C594.525,652.743,595.014,652.831,595.654,652.948Z" transform="translate(-558.993 -517.227)" fill="#4bad8c"/><path d="M752.4,558.352v-.1c-.552,0-1.1.018-1.655-.005-.507-.021-.711.207-.527.66a.815.815,0,0,0,.762.545q1.324.053,2.649.084a.827.827,0,0,0,.779-.385c.269-.441.081-.79-.435-.8S752.92,558.352,752.4,558.352Z" transform="translate(-661.152 -458.985)" fill="#e5b59a"/><path d="M550.119,794.295c-.015-.713-.3-.937-.989-.749a3.2,3.2,0,0,0-1.632,1.065.472.472,0,0,0,.031.717,1.487,1.487,0,0,0,2.59-1.033Z" transform="translate(-528.614 -612.721)" fill="#fff"/><path d="M836.413,795.589a1.513,1.513,0,0,0,1.091-.429c.333-.335.348-.475.046-.84a3.1,3.1,0,0,0-1.82-1.063c-.437-.09-.594.02-.708.459A1.48,1.48,0,0,0,836.413,795.589Z" transform="translate(-716.588 -612.555)" fill="#fff"/><path d="M754.664,572.06c0-.249-.011-.5,0-.746.023-.414-.254-.411-.545-.428-.315-.019-.458.1-.442.424a1.72,1.72,0,0,1-.495,1.276c-.158.174-.537.278-.438.519.086.209.445.062.681.092a.6.6,0,0,0,.083,0C754.824,573.178,754.65,573.357,754.664,572.06Z" transform="translate(-662.84 -467.243)" fill="#151d38"/><path d="M753.384,564.764v0c-.3-.015-.6-.038-.906-.041-.182,0-.414-.078-.511.151a.594.594,0,0,0,.192.667.784.784,0,0,0,.515.237q.739.046,1.482.047a.782.782,0,0,0,.67-.415c.22-.348.125-.548-.291-.584C754.154,564.791,753.768,564.783,753.384,564.764Z" transform="translate(-662.315 -463.206)" fill="#e5b59a"/><path d="M568.7,788.16a.744.744,0,0,0-.65.3c-.119.206.086.354.19.506.3.433.61.854.9,1.29.219.326.491.171.738.087.271-.092.154-.3.091-.482-.126-.366-.239-.735-.376-1.1A.9.9,0,0,0,568.7,788.16Z" transform="translate(-542.118 -609.243)" fill="#fff"/><path d="M562.209,790.616a1.613,1.613,0,0,0-.2.026.592.592,0,0,0-.464.309c-.1.246.139.323.279.435a5.588,5.588,0,0,1,.965,1.021.7.7,0,0,0,.951.048c.315-.255-.041-.433-.143-.61a7.8,7.8,0,0,0-.626-.876A.88.88,0,0,0,562.209,790.616Z" transform="translate(-537.875 -610.847)" fill="#fff"/><path d="M824.081,792.105c.138.041.2-.071.259-.149a6.011,6.011,0,0,1,.809-.81c.358-.3.319-.5-.113-.688-.527-.236-.941-.037-1.392.666A.7.7,0,0,0,824.081,792.105Z" transform="translate(-709.133 -610.683)" fill="#fff"/><path d="M659.9,569.225v-.005c.609,0,1.218,0,1.827,0,.069,0,.2-.069.2-.1,0-.092-.107-.106-.188-.117-1.15-.166-2.3-.334-3.45-.5-.222-.031-.46-.06-.484.275-.023.318.128.453.439.45C658.792,569.221,659.346,569.225,659.9,569.225Z" transform="translate(-600.797 -465.675)" fill="#fff"/><path d="M819.168,789.046c.141.017.556-.409.577-.638.034-.381-.3-.421-.544-.479a.675.675,0,0,0-.781.317C818.352,788.363,818.986,789.024,819.168,789.046Z" transform="translate(-705.768 -609.077)" fill="#fff"/><path d="M761.615,577.094a.761.761,0,0,0-.081-.12c-.046-.046-.1-.043-.122.008a.108.108,0,0,0,.087.16C761.532,577.149,761.575,577.112,761.615,577.094Z" transform="translate(-668.505 -471.202)" fill="#fce2d8"/><path d="M741.956,623.819q2.659,0,5.319,0a3.126,3.126,0,0,1,.661.039.471.471,0,0,1,.393.474.461.461,0,0,1-.372.487,2.847,2.847,0,0,1-.657.061q-5.4.005-10.8,0c-.138,0-.278,0-.415-.008-.339-.032-.6-.169-.584-.557.012-.343.252-.47.559-.49.193-.013.388-.008.581-.008Z" transform="translate(-651.577 -501.839)" fill="#151d38"/><path d="M571.563,466.838q-6.479,0-12.958,0a6.373,6.373,0,0,1-1.1-12.684,28.542,28.542,0,0,1,3.484-.1c5.981-.044,11.963-.056,17.944-.088,1.993-.01,3.988-.1,5.98-.051a6.154,6.154,0,0,1,5.935,3.924,6.338,6.338,0,0,1-5.831,8.794c-2.713.056-5.427.04-8.141.05-1.772.007-3.544,0-5.316,0Z" transform="translate(-531.637 -390.793)" fill="#151d38"/><path d="M573.529,467.686v-.048c3.6,0,7.206.016,10.808-.009a23.348,23.348,0,0,0,3.486-.118,5.3,5.3,0,0,0-.845-10.532c-1.274-.024-2.55.009-3.824.016q-10.1.056-20.2.114c-1.025.006-2.053-.006-3.074.065a5.322,5.322,0,0,0-4.688,6.745,5.39,5.39,0,0,0,5.455,3.9Q567.087,467.755,573.529,467.686Z" transform="translate(-533.606 -392.796)" fill="#e5b59a"/><path d="M642.1,467.826a1.832,1.832,0,0,1,3.663.045,1.832,1.832,0,1,1-3.663-.045Z" transform="translate(-590.538 -398.721)" fill="#151d38"/><path d="M572.447,469.435a1.794,1.794,0,0,1,1.867-1.809,1.822,1.822,0,0,1,1.8,1.805,1.851,1.851,0,0,1-1.839,1.863A1.823,1.823,0,0,1,572.447,469.435Z" transform="translate(-545.017 -399.76)" fill="#151d38"/><path d="M612.22,462.983c.114.037.274.079.426.14,1.231.49,2.464.975,3.689,1.477.791.324.849.684.2,1.239-.984.846-1.98,1.679-2.972,2.517a3.134,3.134,0,0,1-.257.209.509.509,0,0,1-.742-.052.485.485,0,0,1,.075-.733c.2-.191.414-.365.625-.544l1.894-1.61c.2-.172.193-.3-.071-.4q-1.348-.53-2.688-1.081a2.179,2.179,0,0,1-.58-.306.436.436,0,0,1-.1-.533A.545.545,0,0,1,612.22,462.983Z" transform="translate(-570.656 -396.726)" fill="#151d38"/><rect width="3.079" height="86.026" rx="1.539" transform="translate(88.796)" fill="#fcfcfc"/></svg>