<svg xmlns="http://www.w3.org/2000/svg" width="166.972" height="169.871" viewBox="0 0 166.972 169.871"><path d="M1120.136,682.941a26.172,26.172,0,1,1,26.321,26.171A26.3,26.3,0,0,1,1120.136,682.941Z" transform="translate(-1079.413 -619.23)" fill="#fff"/><path d="M1032.794,826.857h16.4c1.2,0,1.16-.029,1.093,1.133a2.591,2.591,0,0,0,.957,2.173c3.364,3.182,6.7,6.395,10.039,9.6q6.343,6.087,12.679,12.18,7.01,6.723,14.026,13.44,7.047,6.763,14.078,13.544a2.3,2.3,0,0,0,1.324.675q3.279.446,6.556.9c1.432.2,2.862.415,4.3.6.4.053.705.122.669.632-.04.572-.454.442-.8.463-.036,0-.072,0-.109,0q-9.88,0-19.761.01a1.742,1.742,0,0,1-1.34-.541c-1.651-1.623-3.336-3.211-5.009-4.812q-10.075-9.641-20.15-19.282-10.858-10.394-21.713-20.79c-.989-.948-1.4-.977-2.546-.181a18.753,18.753,0,0,1-21.857-.008c-1.08-.749-1.6-.713-2.555.233q-6.7,6.658-13.388,13.327c-1.04,1.037-1.052,1.637-.075,2.672q11.88,12.589,23.763,25.174c1.2,1.274,1.2,1.271,1.2,3.026,0,1.3.031,1.171-1.181,1.171q-11.509,0-23.018,0c-.217,0-.434-.009-.651,0a.408.408,0,0,1-.479-.447c-.011-.314.029-.579.427-.618.252-.025.5-.092.748-.128q4.135-.586,8.271-1.167c.609-.086,1.222-.148,1.825-.265a1.39,1.39,0,0,0,.858-2.426c-.211-.248-.433-.487-.659-.721q-8.688-8.961-17.377-17.921c-1.334-1.376-2.688-2.737-3.978-4.154a4.077,4.077,0,0,1-.121-5.369,8.936,8.936,0,0,1,.743-.79q5.232-5.129,10.469-10.253c2.456-2.4,4.885-4.839,7.388-7.193.963-.906,1.811-1.761,1.536-3.222-.1-.53.2-.71.7-.672.252.019.506,0,.76,0Z" transform="translate(-964.899 -712.344)" fill="#fff"/><path d="M1102.836,733.939h-16.18c-.253,0-.507-.01-.76,0-.4.016-.608-.15-.592-.57.011-.289,0-.579,0-.869q0-8.415,0-16.831c0-.29.014-.581-.007-.868a1.246,1.246,0,0,0-1.081-1.294,7.938,7.938,0,0,0-.853-.157q-5.415-.832-10.83-1.66-8.15-1.245-16.3-2.485c-2.932-.446-5.862-.9-8.8-1.325a.927.927,0,0,1-.925-.947c-.3-2.4-.652-4.8-.978-7.2q-.933-6.881-1.858-13.763-.833-6.183-1.661-12.366c-.123-.924-.107-.928.833-1.055q2.312-.312,4.624-.616c.772-.1.791-.095.9.656q.387,2.739.753,5.482.926,6.881,1.846,13.764c.39,2.9.769,5.808,1.181,8.708.173,1.215.466,1.5,1.624,1.679,3.431.532,6.864,1.046,10.3,1.573,4.9.753,9.791,1.523,14.69,2.255a2.2,2.2,0,0,1,1.642,1.02,27.093,27.093,0,0,0,12.463,9.93,2.368,2.368,0,0,1,1.212,1c1.39,2.246,2.81,4.473,4.218,6.708,1.2,1.9,2.378,3.8,3.59,5.692.5.781.97.772,1.49.032.124-.177.233-.367.348-.55,2.39-3.8,4.79-7.587,7.161-11.4a2.619,2.619,0,0,1,1.465-1.177,25.094,25.094,0,0,0,7.654-4.23,1.832,1.832,0,0,1,1.579-.411c3.928.621,7.863,1.205,11.793,1.813q14.526,2.244,29.052,4.5c.906.14.924.14.8,1.111-.2,1.506-.425,3.008-.636,4.512-.13.924-.125.917-1.083.77q-6.7-1.028-13.4-2.05-7.989-1.226-15.975-2.461-5.04-.779-10.076-1.57a1.465,1.465,0,0,0-1.6.63,1.948,1.948,0,0,0-.2,1.155q0,4.94,0,9.882c0,.8-.01,1.593,0,2.389.006.4-.144.611-.568.594-.289-.012-.579,0-.869,0Z" transform="translate(-1034.834 -627.496)" fill="#fff"/><path d="M1154.52,817.346h-15.954c-.29,0-.579-.012-.868,0-.466.015-.631-.216-.624-.665.015-1.085,0-2.171,0-3.256.007-1.478-.149-1.359,1.321-1.359q16.171,0,32.342,0c.217,0,.435.015.651,0,.48-.034.625.209.62.654-.014,1.338-.012,2.677,0,4.015,0,.4-.139.616-.559.61-.289,0-.579.006-.869.006Z" transform="translate(-1086.609 -704.245)" fill="#161d38"/><path d="M1256.032,587.382l-10.3,12.743c-.159.2-.307.4-.478.59-.316.342-.266.621.091.9.681.538,1.343,1.1,2.028,1.633.214.166.42.523.71.373.305-.158.089-.524.076-.791a5.651,5.651,0,0,1,4.952-5.983,6.78,6.78,0,0,1,.863-.089,2.321,2.321,0,0,0,1.9-1.03q7.2-8.973,14.449-17.9c.136-.169.265-.344.408-.507.286-.325.323-.6-.063-.9-1.025-.8-2.034-1.627-3.04-2.453-.315-.258-.567-.253-.816.081-.172.232-.364.449-.546.674Z" transform="translate(-1234.402 -573.786)" fill="#cbac7c"/><path d="M1008.151,767.509a5.428,5.428,0,0,1,.2-1.718,5.719,5.719,0,0,1,5.242-4.442,5.568,5.568,0,0,1,5.606,3.933,24.21,24.21,0,0,1,.75,4.7,1.407,1.407,0,0,1-1.9,1.427,1.507,1.507,0,0,1-.984-1.318c-.123-.821-.221-1.647-.358-2.466-.145-.862-.358-1.134-.785-1.1-.467.041-.657.4-.56,1.3.043.4-.048.609-.418.732a2.52,2.52,0,0,0-1.57,1.4,1,1,0,0,1-.885.642,2.337,2.337,0,0,0-1.9,1.453,3.14,3.14,0,0,1-1.5,1.606c-.616.378-1.214.784-1.813,1.189a1.289,1.289,0,0,1-.907.276c-.968-.121-1.936-.245-2.906-.344-.479-.049-.581-.292-.515-.728.248-1.643.464-3.291.718-4.933.124-.8.15-.81.974-.695.894.126,1.78.316,2.676.412.645.069.85-.159.87-.794C1008.191,767.87,1008.164,767.689,1008.151,767.509Z" transform="translate(-873.854 -676.478)" fill="#fce2d8"/><path d="M1294.178,639.34a5.144,5.144,0,0,1-1.15,3.54,6.351,6.351,0,0,1-5.711,2.5c-1.025-.088-1.254.165-1.084,1.155.116.677.257,1.35.358,2.028.111.752.1.756-.685.865-1,.14-2,.281-3.008.414q-1.022.136-2.045.25c-.211.024-.505.058-.535-.213-.08-.722-.482-1.443.142-2.165.588-.681,1.059-1.464,1.582-2.2,1.633-2.3,3.275-4.6,4.89-6.909.32-.459.621-.8,1.225-.522a.445.445,0,0,0,.214.018.641.641,0,0,0,.667-.585.592.592,0,0,0-.4-.691,5.181,5.181,0,0,0-.734-.185c-.852-.165-1.713-.29-2.556-.491a1.43,1.43,0,0,1,.4-2.829,2.569,2.569,0,0,1,.431.047c1.243.234,2.5.419,3.726.718A5.582,5.582,0,0,1,1294.178,639.34Z" transform="translate(-1273.501 -606.38)" fill="#fce2d8"/><path d="M1308.022,651.592c-.8.984-1.6,1.962-2.384,2.954-.469.592-.466.614.132,1.107.919.76,1.862,1.492,2.777,2.258.368.308.641.373.98-.053q2.4-3.009,4.837-5.99a.589.589,0,0,0-.106-.989q-1.454-1.133-2.867-2.318c-.446-.375-.73-.265-1.057.158C1309.581,649.692,1308.795,650.636,1308.022,651.592Z" transform="translate(-1305.302 -614.602)" fill="#cbac7c"/><path d="M1224.545,656.688c.047,1.452-.193,2.886-.258,4.331a3.982,3.982,0,0,1-.151.962c-.128.427-.407.48-.682.112a46.236,46.236,0,0,1-4-5.931,2.49,2.49,0,0,1,.4-3.014,2.536,2.536,0,0,1,2.761-.776,2.563,2.563,0,0,1,1.919,2.367C1224.587,655.384,1224.544,656.038,1224.545,656.688Z" transform="translate(-1176.284 -616.736)" fill="#fff"/><path d="M1228.3,674.116c-.541,0-1.085.033-1.624-.007a2.587,2.587,0,0,1-2.4-1.884,2.691,2.691,0,0,1,3.652-3.262,48.947,48.947,0,0,1,6.361,3.932c.117.08.25.18.191.349s-.224.151-.357.181a5.52,5.52,0,0,1-.64.119C1231.757,673.721,1230.044,674.027,1228.3,674.116Z" transform="translate(-1188.48 -625.749)" fill="#fff"/><path d="M1298.866,629.184a3.261,3.261,0,0,1,2.159-3.077,3.352,3.352,0,0,1,3.563.935.319.319,0,0,1,.049.47,4.636,4.636,0,0,1-1.011,1.116c-.387.3-.576-.143-.867-.186a.678.678,0,0,0-.756.285c-.147.238-.176.572.023.7.75.491.73,1.245.824,1.993a2.134,2.134,0,0,0,.611,1.127,3.014,3.014,0,0,0,1.674.923c.564.121.616.379.219.8a1.341,1.341,0,0,1-1.944.111c-1.193-.935-2.362-1.9-3.512-2.891A3.036,3.036,0,0,1,1298.866,629.184Z" transform="translate(-1293.418 -602.33)" fill="#fce2d8"/><path d="M1004.6,783.9a3.249,3.249,0,0,1-1.99,3.023,3.005,3.005,0,0,1-3.483-.729c-1.059-1.233-2.02-2.552-2.977-3.868a1.274,1.274,0,0,1,.108-1.7.8.8,0,0,1,.634-.369c.361.035.251.377.307.6a2.708,2.708,0,0,0,2.612,2.332,1.231,1.231,0,0,1,1,.53c.246.357.583.572,1.017.307a.628.628,0,0,0,.212-.938c-.092-.167-.151-.35,0-.5.432-.423.768-1.162,1.348-1.143.462.015.725.737.958,1.228A2.588,2.588,0,0,1,1004.6,783.9Z" transform="translate(-855.314 -686.836)" fill="#fce2d8"/><path d="M1308.487,644.711a1.473,1.473,0,0,1-.995-.362l-3.259-2.687a1.625,1.625,0,0,1-.57-.9,1.486,1.486,0,0,1,.664-1.485c.528-.3.674.215.958.439a52.7,52.7,0,0,0,4.238,3.358.568.568,0,0,1,.2.9A1.388,1.388,0,0,1,1308.487,644.711Z" transform="translate(-1299.828 -609.596)" fill="#fce2d8"/><path d="M1009.488,786.13a1.531,1.531,0,0,1,.965-1.328.482.482,0,0,1,.707.238,33.672,33.672,0,0,0,3.5,4.681.578.578,0,0,1-.04.922,1.41,1.41,0,0,1-2.182-.156c-.906-1.128-1.763-2.3-2.633-3.453A1.42,1.42,0,0,1,1009.488,786.13Z" transform="translate(-871.737 -689.284)" fill="#fce2d8"/><path d="M1017.8,792.206a1.339,1.339,0,0,1,.349-.889c.5-.592.872-.58,1.361.057.683.889,1.363,1.781,2.032,2.68.438.59.348.939-.293,1.268a1.409,1.409,0,0,1-.95.113C1019.568,795.285,1017.785,792.973,1017.8,792.206Z" transform="translate(-882.439 -692.652)" fill="#fce2d8"/><path d="M1134.983,698.072q8.325-.656,16.651-1.31c3.82-.3,7.644-.564,11.462-.89a6.9,6.9,0,0,0,6.4-7.679,7.017,7.017,0,0,0-7.589-6.2q-11.409.859-22.818,1.727c-1.839.139-3.677.277-5.515.427a7.043,7.043,0,0,0-6.582,6.5,6.957,6.957,0,0,0,5.3,7.257A7.511,7.511,0,0,0,1134.983,698.072Z" transform="translate(-1079.559 -633.02)" fill="#161d38"/><path d="M1162.948,685.082l0,.032c.252-.025.5-.059.755-.074a5.6,5.6,0,1,1,.774,11.176q-3.894.308-7.788.618c-5.517.429-11.034.875-16.553,1.269a43.026,43.026,0,0,1-4.872.3,5.592,5.592,0,0,1-3.37-9.835,6.563,6.563,0,0,1,4.11-1.452q3.573-.229,7.144-.5Q1153.051,685.855,1162.948,685.082Z" transform="translate(-1081.139 -634.694)" fill="#fce2d8"/><path d="M1159.646,691.465a.621.621,0,0,0-.691.535.629.629,0,0,0,.447.766c.752.255,1.515.479,2.268.734,1.508.51,1.391.351.346,1.411-.533.54-1.086,1.06-1.634,1.586a.781.781,0,0,0-.226.888c.17.448.721.514,1.173.1.695-.632,1.353-1.3,2.027-1.959.441-.428.91-.83,1.318-1.287.481-.538.392-1.037-.268-1.269-1.5-.527-3.02-.988-4.533-1.475A1.44,1.44,0,0,0,1159.646,691.465Z" transform="translate(-1089.468 -638.218)" fill="#161d38"/><path d="M1197.093,697.254a2.083,2.083,0,1,0-.1,4.164,2.083,2.083,0,0,0,.1-4.164Z" transform="translate(-1139.902 -641.387)" fill="#161d38"/><path d="M1139.775,696.151a2.078,2.078,0,0,0,2.065-2.064,2.107,2.107,0,0,0-2.156-2.093,2.079,2.079,0,0,0,.092,4.157Z" transform="translate(-1056.698 -638.507)" fill="#161d38"/><path d="M972.138,737.738l-11.587,11.586c-.179.179-.37.347-.536.538-.307.35-.59.33-.907.005-.606-.621-1.235-1.22-1.837-1.846-.188-.2-.565-.362-.446-.667.125-.32.511-.143.779-.158a5.652,5.652,0,0,0,5.428-5.555,6.763,6.763,0,0,0,0-.867,2.32,2.32,0,0,1,.824-2q8.165-8.1,16.279-16.254c.154-.153.315-.3.461-.46.293-.318.561-.384.9-.032.906.935,1.832,1.851,2.759,2.765.291.286.312.538.005.819-.213.2-.409.41-.613.614Z" transform="translate(-817.509 -654.823)" fill="#cbac7c"/><path d="M1031.238,796.114c-.895.895-1.783,1.8-2.686,2.681-.54.529-.562.528-1.115-.014-.853-.834-1.68-1.695-2.538-2.524-.346-.333-.438-.6-.052-.98q2.74-2.7,5.448-5.442a.589.589,0,0,1,.995,0q1.28,1.326,2.607,2.607c.42.4.34.7-.046,1.068C1032.964,794.363,1032.106,795.245,1031.238,796.114Z" transform="translate(-897.881 -691.929)" fill="#cbac7c"/></svg>