<svg xmlns="http://www.w3.org/2000/svg" width="179.388" height="182.499" viewBox="0 0 179.388 182.499"><path d="M1402.6,121.623a28.128,28.128,0,1,0,0,.228c0-.076,0-.151,0-.227Z" transform="translate(-1266.967 -53.175)" fill="#9991f5"/><path d="M1308.741,263.588h-17.614c-1.287,0-1.246-.031-1.175,1.215a2.784,2.784,0,0,1-1.028,2.333c-3.614,3.418-7.194,6.87-10.785,10.315q-6.814,6.539-13.621,13.085-7.531,7.223-15.069,14.437-7.571,7.266-15.125,14.55a2.474,2.474,0,0,1-1.422.725q-3.523.479-7.043.97c-1.539.214-3.075.446-4.615.649-.427.057-.758.131-.719.681.043.614.486.475.855.5.039,0,.078,0,.117,0q10.614,0,21.229.011a1.872,1.872,0,0,0,1.439-.583c1.774-1.743,3.584-3.451,5.381-5.169l21.648-20.716q11.667-11.166,23.327-22.335c1.063-1.018,1.5-1.05,2.735-.194a20.147,20.147,0,0,0,23.482-.009c1.16-.805,1.722-.766,2.745.251q7.2,7.152,14.383,14.318c1.118,1.114,1.131,1.758.08,2.871q-12.763,13.525-25.529,27.045c-1.292,1.369-1.294,1.365-1.29,3.251,0,1.4-.033,1.258,1.268,1.258q12.365,0,24.729,0c.233,0,.467-.01.7,0a.437.437,0,0,0,.51-.35.444.444,0,0,0,0-.13c.012-.337-.031-.622-.459-.664-.27-.027-.535-.1-.8-.138q-4.443-.629-8.886-1.254c-.654-.092-1.312-.158-1.96-.285a1.494,1.494,0,0,1-.924-2.606c.227-.267.465-.524.709-.775l18.667-19.253c1.434-1.479,2.887-2.94,4.273-4.463a4.381,4.381,0,0,0,.13-5.768,9.661,9.661,0,0,0-.8-.848q-5.621-5.51-11.248-11.015c-2.639-2.583-5.25-5.2-7.937-7.729-1.035-.972-1.944-1.892-1.653-3.461.107-.569-.22-.762-.752-.722-.27.02-.544,0-.815,0Z" transform="translate(-1202.295 -140.561)" fill="#9991f5"/><path d="M1333.123,175.288h17.383c.272,0,.545-.011.816,0,.432.017.654-.161.637-.612-.012-.311,0-.622,0-.933V155.659c0-.311-.015-.624.008-.933a1.339,1.339,0,0,1,1.161-1.39,8.484,8.484,0,0,1,.917-.169q5.818-.894,11.635-1.784,8.756-1.337,17.513-2.67c3.149-.479,6.3-.967,9.45-1.424a1,1,0,0,0,.994-1v-.019c.318-2.583.7-5.159,1.051-7.738q1-7.392,2-14.786.894-6.643,1.784-13.285c.132-.992.115-1-.895-1.133q-2.484-.335-4.968-.662c-.826-.109-.849-.1-.963.705q-.416,2.943-.809,5.889-.995,7.393-1.983,14.788c-.418,3.119-.826,6.24-1.269,9.356-.185,1.305-.5,1.611-1.744,1.8-3.686.572-7.374,1.124-11.06,1.69-5.261.809-10.519,1.636-15.782,2.422a2.368,2.368,0,0,0-1.764,1.1,29.108,29.108,0,0,1-13.389,10.668,2.541,2.541,0,0,0-1.3,1.072c-1.493,2.413-3.019,4.806-4.531,7.207-1.285,2.042-2.554,4.088-3.857,6.115-.539.839-1.042.83-1.6.035-.134-.191-.25-.394-.374-.591-2.568-4.079-5.146-8.151-7.693-12.243a2.817,2.817,0,0,0-1.574-1.264,26.953,26.953,0,0,1-8.223-4.544,1.968,1.968,0,0,0-1.7-.441c-4.22.667-8.447,1.3-12.67,1.947q-15.6,2.411-31.212,4.832c-.972.151-.993.151-.856,1.194.213,1.618.457,3.231.683,4.848.139.993.135.985,1.164.826q7.2-1.1,14.4-2.2,8.582-1.318,17.163-2.644,5.414-.836,10.825-1.687a1.574,1.574,0,0,1,1.723.677,2.094,2.094,0,0,1,.22,1.241v10.616c0,.856.011,1.711,0,2.566-.006.432.155.657.61.638.311-.013.622,0,.933,0Z" transform="translate(-1226.791 -60.932)" fill="#9991f5"/><path d="M1382.1,254.479h17.14c.311,0,.622-.013.933,0,.5.016.677-.232.671-.714-.016-1.167,0-2.333,0-3.5-.008-1.588.159-1.458-1.419-1.458q-17.373,0-34.746,0c-.233,0-.468.016-.7,0-.515-.036-.672.224-.666.7.015,1.438.013,2.876,0,4.314,0,.427.15.662.6.656.311,0,.622.006.933.006Z" transform="translate(-1275.671 -132.968)" fill="#161d38"/><path d="M1487.307,25.128q5.535,6.845,11.067,13.692c.171.211.329.435.514.632.34.368.285.667-.1.969-.732.578-1.443,1.182-2.179,1.754-.23.178-.452.562-.763.4-.328-.169-.1-.562-.081-.85a6.072,6.072,0,0,0-5.32-6.427,7.321,7.321,0,0,0-.927-.1,2.493,2.493,0,0,1-2.042-1.106q-7.729-9.64-15.522-19.232c-.146-.181-.285-.37-.437-.544-.307-.349-.346-.643.068-.967,1.1-.862,2.185-1.75,3.266-2.635.34-.278.61-.272.875.087.185.249.389.483.587.724Z" transform="translate(-1331.157 -10.519)" fill="#fff"/><path d="M1241.848,204.7a5.834,5.834,0,0,0-.213-1.847A6.144,6.144,0,0,0,1236,198.08a5.982,5.982,0,0,0-6.023,4.226,26,26,0,0,0-.806,5.051,1.511,1.511,0,0,0,2.045,1.533,1.619,1.619,0,0,0,1.057-1.416c.132-.882.238-1.769.385-2.649.156-.924.385-1.219.843-1.178.5.044.705.428.6,1.393-.046.43.052.655.448.787a2.709,2.709,0,0,1,1.687,1.507,1.077,1.077,0,0,0,.951.69,2.513,2.513,0,0,1,2.042,1.561,3.371,3.371,0,0,0,1.608,1.726c.662.406,1.3.842,1.948,1.277a1.383,1.383,0,0,0,.974.3c1.04-.13,2.08-.263,3.122-.37.515-.052.624-.314.553-.782-.267-1.765-.5-3.536-.771-5.3-.132-.86-.161-.871-1.046-.746-.96.135-1.911.34-2.875.443-.693.074-.913-.171-.934-.853A5.647,5.647,0,0,1,1241.848,204.7Z" transform="translate(-1206.739 -106.9)" fill="#fce2d8"/><path d="M1506.346,76.518a5.525,5.525,0,0,0,1.235,3.8A6.823,6.823,0,0,0,1513.717,83c1.1-.094,1.347.177,1.167,1.241-.125.729-.276,1.45-.385,2.179-.12.808-.1.812.735.929,1.077.15,2.154.3,3.232.445q1.1.146,2.2.268c.227.026.542.062.575-.229.085-.778.518-1.55-.153-2.326-.632-.732-1.138-1.573-1.7-2.365-1.754-2.472-3.518-4.937-5.253-7.422-.344-.493-.667-.856-1.316-.561a.483.483,0,0,1-.23.019.688.688,0,0,1-.717-.629.635.635,0,0,1,.424-.743,5.582,5.582,0,0,1,.788-.2c.915-.177,1.84-.311,2.746-.527a1.537,1.537,0,0,0-.433-3.039,2.745,2.745,0,0,0-.463.051c-1.335.251-2.684.45-4,.771A6,6,0,0,0,1506.346,76.518Z" transform="translate(-1349.172 -41.105)" fill="#fce2d8"/><path d="M1538.586,88.571c.855,1.057,1.717,2.108,2.561,3.174.5.636.5.659-.141,1.189-.988.817-2,1.6-2.983,2.426-.4.331-.689.4-1.053-.056q-2.579-3.233-5.2-6.436a.632.632,0,0,1,.114-1.063q1.562-1.216,3.081-2.49c.479-.4.784-.285,1.136.17C1536.91,86.53,1537.755,87.545,1538.586,88.571Z" transform="translate(-1362.12 -48.83)" fill="#fff"/><path d="M1445.375,93.762c-.049,1.56.207,3.1.277,4.653a4.231,4.231,0,0,0,.162,1.033c.137.459.437.516.732.121a49.752,49.752,0,0,0,4.3-6.372,2.674,2.674,0,0,0-.431-3.238,2.723,2.723,0,0,0-2.966-.834,2.753,2.753,0,0,0-2.061,2.542C1445.33,92.362,1445.375,93.064,1445.375,93.762Z" transform="translate(-1317.836 -50.839)" fill="#9991f5"/><path d="M1457,111.305c.583,0,1.167.035,1.744-.007a2.779,2.779,0,0,0,2.583-2.024,2.89,2.89,0,0,0-3.924-3.5,52.607,52.607,0,0,0-6.833,4.224c-.125.086-.269.194-.205.375s.243.162.383.194a5.993,5.993,0,0,0,.688.128C1453.3,110.881,1455.138,111.209,1457,111.305Z" transform="translate(-1320.404 -59.341)" fill="#9991f5"/><path d="M1532.349,66.164a3.5,3.5,0,0,0-2.32-3.306,3.6,3.6,0,0,0-3.828,1,.343.343,0,0,0-.074.479.268.268,0,0,0,.021.026,4.96,4.96,0,0,0,1.086,1.2c.416.319.618-.154.931-.2a.73.73,0,0,1,.812.307c.158.255.189.615-.025.755-.805.527-.784,1.338-.885,2.139a2.291,2.291,0,0,1-.656,1.21,3.239,3.239,0,0,1-1.8.991c-.606.13-.662.407-.235.856a1.44,1.44,0,0,0,2.03.174c.021-.017.041-.036.061-.054,1.282-1,2.537-2.045,3.773-3.106A3.261,3.261,0,0,0,1532.349,66.164Z" transform="translate(-1358.814 -37.312)" fill="#fce2d8"/><path d="M1222.118,220.913a3.49,3.49,0,0,0,2.139,3.248,3.229,3.229,0,0,0,3.743-.783c1.137-1.324,2.17-2.742,3.2-4.155a1.369,1.369,0,0,0-.116-1.822.858.858,0,0,0-.68-.4c-.389.037-.27.4-.33.645a2.909,2.909,0,0,1-2.806,2.505,1.322,1.322,0,0,0-1.07.569c-.264.383-.627.615-1.093.33a.674.674,0,0,1-.29-.909.731.731,0,0,1,.062-.1c.1-.179.163-.376,0-.535-.464-.454-.826-1.249-1.448-1.228-.5.016-.778.792-1.03,1.32A2.778,2.778,0,0,0,1222.118,220.913Z" transform="translate(-1203.115 -116.629)" fill="#fce2d8"/><path d="M1531.346,81.858a1.584,1.584,0,0,0,1.069-.389l3.5-2.887a1.748,1.748,0,0,0,.612-.965,1.6,1.6,0,0,0-.714-1.595c-.568-.318-.724.231-1.03.472a56.6,56.6,0,0,1-4.553,3.607.61.61,0,0,0-.219.965A1.492,1.492,0,0,0,1531.346,81.858Z" transform="translate(-1361.26 -44.131)" fill="#fce2d8"/><path d="M1241.5,222.964a1.645,1.645,0,0,0-1.037-1.426.518.518,0,0,0-.714.163.58.58,0,0,0-.046.092,36.2,36.2,0,0,1-3.759,5.029.621.621,0,0,0,.043.991,1.513,1.513,0,0,0,2.344-.167c.972-1.211,1.9-2.466,2.828-3.709A1.528,1.528,0,0,0,1241.5,222.964Z" transform="translate(-1210.107 -118.918)" fill="#fce2d8"/><path d="M1248.344,229.036a1.441,1.441,0,0,0-.375-.955c-.541-.636-.936-.623-1.462.061-.734.955-1.465,1.913-2.183,2.879-.471.632-.374,1.009.314,1.361a1.513,1.513,0,0,0,1.021.122C1246.445,232.347,1248.361,229.863,1248.344,229.036Z" transform="translate(-1214.378 -122.083)" fill="#fce2d8"/><path d="M1390.309,136l-17.889-1.41c-4.1-.321-8.212-.606-12.314-.956a7.414,7.414,0,0,1-6.912-7.883q.012-.184.034-.367a7.538,7.538,0,0,1,8.153-6.663q12.257.924,24.514,1.855c1.976.15,3.951.3,5.925.459a7.567,7.567,0,0,1,7.072,6.983,7.474,7.474,0,0,1-5.687,7.8A8.072,8.072,0,0,1,1390.309,136Z" transform="translate(-1270.466 -66.114)" fill="#161d38"/><path d="M1363.49,121.836l0,.034c-.27-.027-.541-.063-.811-.079a6.019,6.019,0,1,0-1.014,11.994c.061.005.122.01.183.013l8.367.664c5.927.461,11.854.94,17.784,1.361a46.167,46.167,0,0,0,5.234.321,6.007,6.007,0,0,0,3.62-10.566,7.05,7.05,0,0,0-4.416-1.559q-3.841-.245-7.675-.54Q1374.123,122.667,1363.49,121.836Z" transform="translate(-1271.993 -67.689)" fill="#fce2d8"/><path d="M1390.9,128.2a.667.667,0,0,1,.743.575.676.676,0,0,1-.48.823c-.808.274-1.628.515-2.436.788-1.62.548-1.495.377-.371,1.516.573.58,1.166,1.139,1.755,1.7a.839.839,0,0,1,.243.954c-.183.481-.775.552-1.26.111-.746-.681-1.454-1.4-2.177-2.1-.474-.459-.978-.892-1.416-1.383-.517-.578-.421-1.114.288-1.361,1.61-.566,3.244-1.062,4.869-1.584A1.568,1.568,0,0,1,1390.9,128.2Z" transform="translate(-1286.908 -70.99)" fill="#161d38"/><path d="M1423.349,133.99a2.237,2.237,0,1,1-2.185,2.288A2.236,2.236,0,0,1,1423.349,133.99Z" transform="translate(-1305.403 -73.969)" fill="#161d38"/><path d="M1366.105,133.2a2.233,2.233,0,0,1-2.218-2.218,2.263,2.263,0,0,1,2.277-2.249h.039a2.234,2.234,0,0,1-.1,4.466Z" transform="translate(-1275.969 -71.266)" fill="#161d38"/><path d="M1196.293,175.661l12.448,12.447c.192.194.4.373.576.578.33.376.632.354.972.006.651-.667,1.327-1.312,1.973-1.983.2-.21.607-.389.479-.716-.134-.344-.549-.154-.837-.17a6.072,6.072,0,0,1-5.833-5.968,7.3,7.3,0,0,1,0-.932,2.492,2.492,0,0,0-.885-2.147q-8.772-8.7-17.489-17.462c-.165-.165-.34-.322-.5-.494-.315-.34-.6-.412-.969-.034-.972,1-1.968,1.989-2.965,2.971-.312.307-.335.577-.006.879.229.21.438.44.659.66Z" transform="translate(-1183.027 -86.581)" fill="#fff"/><path d="M1253.989,233.335c.961.961,1.915,1.929,2.886,2.881.58.568.6.567,1.2-.015.916-.9,1.8-1.821,2.726-2.712.372-.358.471-.643.056-1.053q-2.944-2.905-5.852-5.846a.632.632,0,0,0-1.069,0q-1.375,1.425-2.8,2.8c-.451.434-.365.75.049,1.148C1252.134,231.453,1253.055,232.4,1253.989,233.335Z" transform="translate(-1217.87 -121.404)" fill="#fff"/><path d="M1362.875,129.41a3.052,3.052,0,0,1-1.488-.347,1.048,1.048,0,0,1-.444-1.326" transform="translate(-1274.404 -70.757)" fill="none" stroke="#000" stroke-miterlimit="10" stroke-width="0.75"/><path d="M1365.757,127.925a3,3,0,0,1-.841-.15,1.016,1.016,0,0,1-.61-.566,1.172,1.172,0,0,1,.181-.978" transform="translate(-1276.161 -69.982)" fill="none" stroke="#000" stroke-miterlimit="10" stroke-width="0.75"/><path d="M1427.049,133.147a1.3,1.3,0,0,0,1.159-.672,5.69,5.69,0,0,0,.292-1.557" transform="translate(-1308.427 -72.391)" fill="none" stroke="#000" stroke-miterlimit="10" stroke-width="0.75"/><path d="M1427.981,135.912a1.734,1.734,0,0,0,1.634-.384,3.943,3.943,0,0,0,.984-1.437" transform="translate(-1308.906 -74.021)" fill="none" stroke="#000" stroke-miterlimit="10" stroke-width="0.75"/><path d="M1429.169,140.45a1.734,1.734,0,0,0,1.657.271,3.941,3.941,0,0,0,1.458-.952" transform="translate(-1309.517 -76.939)" fill="none" stroke="#000" stroke-miterlimit="10" stroke-width="0.75"/><path d="M1362.18,133.264a3.051,3.051,0,0,1-1.525.1,1.048,1.048,0,0,1-.806-1.142" transform="translate(-1273.883 -73.059)" fill="none" stroke="#000" stroke-miterlimit="10" stroke-width="0.75"/></svg>