<svg id="Lager_1" data-name="Lager 1" xmlns="http://www.w3.org/2000/svg" viewBox="0 0 119.73 184.32"><defs><style>.cls-1{fill:#f29293;}.cls-2{fill:#984554;}.cls-3{fill:#f4b9b8;}</style></defs><title>Onzua</title><path class="cls-1" d="M81.52,173.9s.4-28.4,5.9-32.1c3.7-2.4,2.5-18.5,1.3-29a6.32,6.32,0,0,1,4.7-6.8c1.5-.4,2.8-.8,4-1.2,12.9-4.8,12.2-64.9,8.1-74.9S76,0,59,0s-36.9,18.6-43.8,28.5c-7.1,10.1-3.4,64.4,2.1,73.7.8,1.4,2.8,2.5,5.5,3.5a6.46,6.46,0,0,1,4.1,6.7c-1.2,10.5-2.5,27,1.2,29.4,5.5,3.7,5.9,32.1,5.9,32.1s-23.7-6.6-22.8,9.6c0,0,16.8,3.3,33.1-3.3,0,0,1.5-28-7.3-41.7,0,0-2.1-8.2.3-24a6.32,6.32,0,0,1,6.6-5.3,212,212,0,0,0,27.6-.1,6.32,6.32,0,0,1,6.6,5.3c2.5,15.8.3,24.1.3,24.1-8.9,13.6-7.3,41.7-7.3,41.7,16.2,6.6,33.1,3.3,33.1,3.3C105.22,167.2,81.52,173.9,81.52,173.9Z" transform="translate(0)"/><ellipse class="cls-2" cx="42.62" cy="42.8" rx="3" ry="5.7"/><ellipse class="cls-2" cx="76.82" cy="42.8" rx="3" ry="5.7"/><path class="cls-1" d="M87.72,13.5s13.2-10.3,16.6-8.1-3.7,18.8-3.7,18.8Z" transform="translate(0)"/><path class="cls-1" d="M31.72,13.5S18.52,3.2,15.12,5.4s3.7,18.8,3.7,18.8Z" transform="translate(0)"/><path class="cls-2" d="M89,59.2,87,59a10.47,10.47,0,0,0,.3,3h0c-.1.1-7.5,6.7-27.6,6.7-17.3,0-25.6-4.9-27.7-6.3a10.52,10.52,0,0,0,.4-3.3l-1.9.2A6.37,6.37,0,0,1,27,65.4l.9,1.7a8.12,8.12,0,0,0,3.3-3c2.7,1.8,11.3,6.5,28.5,6.5,18.1,0,26.3-5.2,28.4-6.8a8,8,0,0,0,3.5,3.3l.9-1.7A6.17,6.17,0,0,1,89,59.2Z" transform="translate(0)"/><path class="cls-1" d="M14.32,57S8,69.6,4.62,89.8C-.58,120.3-2,172,3.52,175.7s7.9-12.5,7.9-12.5,5,5.9,6.5,1.1-6.4-14.7-6.5-50.5,5-49.4,5-49.4Z" transform="translate(0)"/><path class="cls-1" d="M105.42,57s6.3,12.6,9.7,32.8c5.2,30.5,6.6,82.2,1.1,85.9s-7.9-12.5-7.9-12.5-5,5.9-6.5,1.1,6.4-14.7,6.5-50.5-5-49.4-5-49.4Z" transform="translate(0)"/><path class="cls-3" d="M85.62,52c-.1-2.1,1.4-5.2,6.8-5.2,5.9,0,6.8,2.9,6.8,5.2.1,2.1-2,4.3-6.8,4.3S85.72,54.1,85.62,52Z" transform="translate(0)"/><path class="cls-3" d="M20.22,52c-.1-2.1,1.4-5.2,6.8-5.2,5.9,0,6.8,2.9,6.8,5.2.1,2.1-2,4.3-6.8,4.3S20.32,54.1,20.22,52Z" transform="translate(0)"/></svg>