<?xml version="1.0" encoding="utf-8"?>
<!-- Generator: Adobe Illustrator 23.0.3, SVG Export Plug-In . SVG Version: 6.00 Build 0)  -->
<svg version="1.1" id="Layer_1" xmlns="http://www.w3.org/2000/svg" xmlns:xlink="http://www.w3.org/1999/xlink" x="0px" y="0px"
	 viewBox="0 0 190.5 34.6" style="enable-background:new 0 0 190.5 34.6;" xml:space="preserve">
<style type="text/css">
	.st0{fill:#FFFFFF;}
	.st1{fill:none;stroke:#6FACB9;stroke-width:4;}
	.st2{font-family:'ArialMT';}
	.st3{font-size:14px;}
</style>
<g id="Group_86" transform="translate(-918 -474)">
	<g transform="matrix(1, 0, 0, 1, 918, 474)">
		<g id="Rectangle_113-2" transform="translate(9 6)">
			<path class="st0" d="M35.4-1.4h102.9c23.6,0,42.8,2.8,42.8,6.3v11.5c0,3.5-19.2,6.4-42.9,6.4H35.4c-23.7,0-42.9-2.9-42.9-6.4V4.9
				C-7.6,1.4,11.7-1.4,35.4-1.4z"/>
			<path class="st1" d="M35.4-0.6h102.9c20.6,0,37.1,2.5,37.1,5.5v11.5c0,3.1-16.7,5.5-37.1,5.5H35.4c-20.6,0-37.1-2.5-37.1-5.5V4.9
				C-1.9,1.9,14.8-0.6,35.4-0.6z"/>
		</g>
	</g>
</g>
<text transform="matrix(1 0 0 1 75.8712 20.4182)" class="st2 st3">Space</text>
</svg>
