<svg xmlns="http://www.w3.org/2000/svg" width="283.775" height="410.661" viewBox="0 0 283.775 410.661"><g transform="translate(-1042.383 -293.821)"><path d="M1159.786,375.29a7.919,7.919,0,0,1,3.86-.722c2.04.055,4.083.031,6.123.008,1.835-.022,1.806-.048,2.245-1.915,1.622-6.9,5.843-11.378,12.707-13.1a16.294,16.294,0,0,1,13.685,2.561c.452.311.871.669,1.315.991.713.515.966.2.971-.551a25.629,25.629,0,0,1,.473-5.379,22.171,22.171,0,0,1,42.887-1.572,12.107,12.107,0,0,1,.357,1.364c.214,1.217.634.956,1.269.252a14.555,14.555,0,0,1,11.473-5.029,14.759,14.759,0,0,1,14.3,12.582c.043.31.06.625.079.938.046.745.289,1.081.975.468.351-.314.672-.661,1.027-.971a14.541,14.541,0,0,1,23.776,7.4c.491,1.932.491,1.946,2.435,1.96,2.2.017,4.4,0,6.6.009a9.4,9.4,0,0,1,1.64.1,1.306,1.306,0,0,1,1.165,1.284,1.345,1.345,0,0,1-1.183,1.511,11.626,11.626,0,0,1-2.111.087q-71.247,0-142.494.025a6.248,6.248,0,0,1-3.567-.885Z" transform="translate(-1.883 0)" fill="#fff"/><path d="M1328.305,681.365c-.921.85-2.064.6-3.14.6q-27.206.015-54.413.007-46.521,0-93.042,0c-.784,0-1.572,0-2.351-.071a1.235,1.235,0,0,1-1.2-1.226,1.326,1.326,0,0,1,1.14-1.539,12.3,12.3,0,0,1,2.112-.087q20.611-.006,41.222-.015c.749,0,1.948.354,2.149-.263.247-.766-.965-1-1.567-1.408a33.381,33.381,0,0,1-6-4.908,7.262,7.262,0,0,1-1.841-2.97,2.957,2.957,0,0,1,3.227-3.937,8.233,8.233,0,0,1,1.6.368c1.845.553,1.834.561,1.741-1.473a7.7,7.7,0,0,1,.058-1.639,2.9,2.9,0,0,1,4.615-2.073,9.09,9.09,0,0,1,1.1.878c.46.388.7.328,1.053-.231,2.413-3.823,4.158-3.746,6.473.264.3.518.542.723,1.046.267a9.872,9.872,0,0,1,1.443-1.2,2.879,2.879,0,0,1,4.567,2.148,15.791,15.791,0,0,1-.053,2.814c-.031.658.248.833.847.644a15.477,15.477,0,0,1,2.472-.736,2.9,2.9,0,0,1,3.418,3.575,6.657,6.657,0,0,1-1.992,3.4,34.233,34.233,0,0,1-6.821,5.384c-.311.2-.828.333-.752.766.09.525.638.325.984.327,4.083.017,8.167-.044,12.248.043,1.274.028,1.618-.546,1.783-1.608a32.011,32.011,0,0,1,.711-3.453,13.316,13.316,0,0,1,2.209-4.651c3.153-4.144,8.491-4.148,11.6.02a18.5,18.5,0,0,1,2.987,7.359c.495,2.29.479,2.3,2.839,2.3,1.806,0,3.611,0,5.417,0,2.9,0,2.824.179,1.571-2.613q-3.183-7.085-6.4-14.157c-.227-.5-.43-1.011-.666-1.507-.437-.916-.368-1.737.62-2.174,1.038-.458,1.611.227,2,1.079.946,2.068,1.872,4.147,2.812,6.219q.973,2.142,1.97,4.274c.09.191.2.44.491.395.306-.047.288-.321.3-.535.024-.549.024-1.1.024-1.648q0-7.773.006-15.546a7.207,7.207,0,0,1,.123-1.87,1.315,1.315,0,0,1,1.412-1.02,1.226,1.226,0,0,1,1.225,1.2c.052.624.058,1.253.059,1.881q.006,7.655,0,15.311c0,.549-.017,1.1.01,1.648.014.279-.141.687.254.787.372.093.5-.262.631-.548q1.643-3.647,3.292-7.293c.517-1.144,1.019-2.3,1.566-3.425.376-.775.974-1.294,1.886-.928s.99,1.147.725,1.972a14.808,14.808,0,0,1-.637,1.517c-2.161,4.793-4.3,9.593-6.493,14.372-1.334,2.909-1.077,2.612,1.6,2.612q20.375,0,40.751,0a6.024,6.024,0,0,1,2.974.433Zm-69.054-2.451v0q2.472,0,4.944,0c.808,0,1.152-.394,1.007-1.184a15.678,15.678,0,0,0-2.5-6.539c-1.992-2.746-5.037-2.768-7.076-.064a13.747,13.747,0,0,0-2.321,6.341c-.157.99.173,1.48,1.231,1.459C1256.111,678.89,1257.681,678.914,1259.251,678.914Z" transform="translate(-2.147 -5.702)" fill="#fff"/><path d="M1145.307,430.966c0-5.1-.01-10.208.008-15.311,0-1.149.112-2.27-1.61-2.119-.669.058-1.139-.461-1.61-.879-1.177-1.04-2.357-2.075-3.528-3.122-.644-.575-1.392-1.134-1.031-2.164s1.272-1,2.154-1c2.356.007,4.712-.031,7.067.014,1.011.019,1.394-.363,1.385-1.371q-.047-5.653,0-11.307c.009-1.045-.488-1.494-1.431-1.309-2.921.574-4.931-.909-6.789-2.844-.651-.677-1.467-1.206-2.062-1.925a1.39,1.39,0,0,1,.956-2.413,28.849,28.849,0,0,1,3.059-.051,24.893,24.893,0,0,0,24.339-20.6c.571-3.111.212-6.268.3-9.4a15.382,15.382,0,0,1,.092-2.111,1.384,1.384,0,0,1,1.457-1.268,1.306,1.306,0,0,1,1.356,1.347c.082,1.488.064,2.981.071,4.472a37.714,37.714,0,0,0,.617,8.2,24.889,24.889,0,0,0,23.23,19.337c1.255.046,2.519-.04,3.766.075,1.465.134,2.033,1.455,1,2.5a49.336,49.336,0,0,1-4.942,4.354c-.9.69-2.136.274-3.222.31-2.031.069-2.055.048-2.065,2.136-.018,3.454.023,6.91-.015,10.365-.012,1.094.358,1.549,1.5,1.52,2.354-.062,4.711-.019,7.066-.014.786,0,1.639-.073,2.016.837.4.972-.142,1.627-.841,2.229-1.248,1.077-2.471,2.183-3.7,3.278a3.294,3.294,0,0,1-1.392.83c-1.79.454-1.807.475-1.808,2.171q-.01,15.429,0,30.859c0,2.137.031,2.147,2.247,2.156,2.669.012,5.339,0,8.009,0a9.17,9.17,0,0,1,1.645.048c1.35.25,1.908,1.514.921,2.4-1.9,1.71-3.444,3.922-6,4.775-.858.287-.8.8-.749,1.445.312,3.912.612,7.825.922,11.737q1.1,13.85,2.21,27.7,1.315,16.431,2.633,32.86.57,7.16,1.113,14.322c.073.939.113,1.882.219,2.817.234,2.057.245,2.032,2.241,1.751a50.731,50.731,0,0,1,31.026,5.347,89.058,89.058,0,0,1,14.2,9.641c4.247,3.361,8.445,6.788,12.9,9.872a80.691,80.691,0,0,0,12.442,7.136c.377.171.851.667,1.241.236.369-.409-.1-.876-.282-1.279-1.079-2.439-2.192-4.864-3.278-7.3a7.9,7.9,0,0,1-.546-1.542.8.8,0,0,1,.521-.942.858.858,0,0,1,1.054.278,8.3,8.3,0,0,1,.771,1.444c.88,1.927,1.736,3.865,2.621,5.789.113.245.227.664.629.481.128-.058.165-.416.166-.638.011-3.533.006-7.067.016-10.6a13.7,13.7,0,0,1,.093-1.876.928.928,0,0,1,.936-.879c.6-.015.817.407.862.9.058.623.047,1.254.048,1.882,0,3.612,0,7.224.011,10.836,0,.269-.109.7.361.669.155-.008.342-.3.432-.493.887-1.923,1.756-3.855,2.632-5.783.228-.5.433-1.014.7-1.489a.945.945,0,0,1,1.379-.458.917.917,0,0,1,.36,1.229c-.178.518-.437,1.007-.662,1.509-1.319,2.934-2.655,5.86-3.953,8.8-.628,1.427-.613,1.488.846,1.979a82.593,82.593,0,0,0,15.11,3.49,108.2,108.2,0,0,0,14.552,1.014,6.817,6.817,0,0,1,1.635.119,1.321,1.321,0,0,1,1.018,1.41,1.282,1.282,0,0,1-1.091,1.341,5.883,5.883,0,0,1-1.167.1c-15.363-.1-30.137-2.71-43.742-10.294a120.8,120.8,0,0,1-16.24-11.255c-3.931-3.128-7.844-6.28-11.988-9.132a50.525,50.525,0,0,0-28.47-9.172,38.545,38.545,0,0,0-16.419,3.574,83.053,83.053,0,0,0-14.922,8.935c-6.488,4.7-12.562,9.934-18.933,14.784a69.345,69.345,0,0,1-11.447,7.409,22.558,22.558,0,0,1-7.613,2.324,9.626,9.626,0,0,1-1.172.09c-1.3-.028-2.079-.576-2.02-1.479a1.559,1.559,0,0,1,1.761-1.508c4.264-.061,7.851-2,11.373-4.1,1.146-.683,2.256-1.428,3.347-2.195,6.942-4.883,13.318-10.495,20.084-15.6.236-.179.57-.46.563-.684-.016-.517-.549-.459-.892-.477a74.981,74.981,0,0,1-11.43-1.456,57.078,57.078,0,0,1-21.209-9.253c-3.352-2.337-6.5-4.937-9.715-7.454a69.14,69.14,0,0,0-7.1-5.038,33.826,33.826,0,0,0-22.1-4.826,30.5,30.5,0,0,0-10.983,4.023,96.057,96.057,0,0,0-12.9,9.057c-3.38,2.688-6.7,5.457-10.228,7.946a34.911,34.911,0,0,1-7.358,4.165,13.812,13.812,0,0,1-4.816.977c-.984.017-1.752-.381-1.748-1.461a1.426,1.426,0,0,1,1.528-1.469c3.817-.094,6.859-2.063,9.863-4.077,3.721-2.494,7.136-5.4,10.638-8.183a126.019,126.019,0,0,1,11.826-8.549c12.885-8.013,25.7-7.307,38.458.271,2.629,1.561,2.545,1.6,2.808-1.531.866-10.324,1.784-20.643,2.67-30.966.7-8.133,1.37-16.267,2.067-24.4.551-6.412,1.123-12.822,1.68-19.234.088-1.017.133-2.038.227-3.054.079-.861-.132-1.263-1.069-1.7-2.213-1.039-3.829-2.954-5.554-4.648-.947-.932-.387-2.157.961-2.393a9.756,9.756,0,0,1,1.645-.05c2.827,0,5.654.018,8.48-.011,1.637-.017,1.679-.052,1.686-1.746C1145.32,441.645,1145.306,436.306,1145.307,430.966Z" transform="translate(0 -0.22)" fill="#fff"/><path d="M1264.082,460.633c-5.176,0-10.352.008-15.529,0-1.972,0-2.714-.462-2.627-1.534.08-.976.785-1.37,2.573-1.385,1.883-.017,3.765.014,5.647-.016.516-.009,1.324.282,1.493-.245.243-.757-.715-.867-1.165-1.2a43.632,43.632,0,0,1-4.406-3.524,11.32,11.32,0,0,1-2.35-2.92,3.315,3.315,0,0,1,.049-3.769c.869-1.158,2.1-1.177,3.407-1.059.974.087,1.991,1.244,2.732.519.433-.423-.121-1.766-.069-2.685.172-2.978,2.652-4.146,5.161-2.472,1.313.878,1.313.878,2.083-.359,1.7-2.732,4.272-2.65,5.805.188a5.541,5.541,0,0,1,.381.859c.228.679.578.586,1.011.2a10.594,10.594,0,0,1,1.25-1.065,2.974,2.974,0,0,1,4.827,2.284,11.085,11.085,0,0,1-.058,2.11c-.1,1.358-.112,1.365,1.086.963a8.428,8.428,0,0,1,2.264-.587c2.627-.134,4.082,1.867,3.117,4.339a8.892,8.892,0,0,1-2.012,2.872,33.7,33.7,0,0,1-5.095,4.158c-.427.3-1.259.529-1.114,1.033.218.759,1.083.33,1.644.349,1.88.063,3.764.011,5.646.032a4.822,4.822,0,0,1,1.61.194,1.3,1.3,0,0,1,.859,1.5,1.23,1.23,0,0,1-1.052,1.116,14.552,14.552,0,0,1-1.874.1Q1271.728,460.639,1264.082,460.633Z" transform="translate(-3.467 -1.805)" fill="#fff"/><path d="M1132.106,708.355q7.652,0,15.305,0a8.679,8.679,0,0,1,1.873.1,1.309,1.309,0,0,1,1.057,1.378,1.3,1.3,0,0,1-1.11,1.326,9.62,9.62,0,0,1-1.64.094q-15.422.007-30.845,0a12.2,12.2,0,0,1-1.642-.079,1.3,1.3,0,0,1-1.164-1.285,1.338,1.338,0,0,1,1.218-1.477,10.787,10.787,0,0,1,1.644-.058Q1124.453,708.353,1132.106,708.355Z" transform="translate(-1.04 -6.776)" fill="#fff"/></g><path d="M769.845,168.16c.653.592,1.519.386,2.273.6.8.231,1.546.518,1.6,1.514.05.855-.5,1.29-1.2,1.607-.726.329-1.465.639-2.168,1.014a19.369,19.369,0,0,0,9.348,36.447,19.115,19.115,0,0,0,13.033-5.253c.739-.681,1.4-1.775,2.616-1.1,1.33.731.746,1.92.485,2.991a30.24,30.24,0,0,1-31.769,22.666c-13.8-.934-25.683-12.167-27.431-26.148-2.035-16.287,8.469-30.66,24.7-33.8.61-.118,1.3.007,1.785-.536Z" transform="translate(-736.39 -168.16)" fill="#fff"/></svg>